{"glyphs":{"0":{"ha":792,"x_min":71,"x_max":785,"o":"m 785 628 q 681 200 785 394 q 541 43 629 103 q 342 -17 453 -17 q 139 83 207 -17 q 71 346 71 182 q 194 808 71 629 q 513 986 318 986 q 718 885 651 986 q 785 628 785 785 m 354 76 q 463 158 417 76 q 531 356 510 239 q 571 698 571 583 q 552 852 571 813 q 485 892 533 892 q 397 826 438 892 q 332 658 356 761 q 285 247 285 456 q 303 112 285 147 q 354 76 321 76 z "},"1":{"ha":518,"x_min":44,"x_max":504,"o":"m 139 -4 l 125 -4 q 204 430 128 97 q 281 828 281 763 q 279 867 281 860 q 113 735 203 825 q 78 765 96 743 q 53 803 61 786 l 44 819 l 276 968 q 488 986 379 986 q 504 898 504 958 q 469 687 504 838 q 397 351 435 536 q 356 24 360 165 q 139 -4 306 -4 z "},"2":{"ha":688,"x_min":-35,"x_max":688,"o":"m 517 -25 q 371 31 468 -25 q 210 106 274 88 q 119 24 163 56 q 60 -7 75 -7 q 5 42 44 -7 q -35 117 -35 92 q 12 191 -35 143 q 119 239 58 239 q 193 231 157 239 q 378 456 290 308 q 465 715 465 604 q 428 813 465 778 q 337 849 390 849 q 233 814 283 849 q 146 718 182 779 l 82 746 q 208 910 110 833 q 426 986 306 986 q 613 921 546 986 q 681 757 681 856 q 640 602 681 686 q 535 442 599 518 q 296 206 415 301 q 564 158 469 158 q 603 173 590 158 q 642 240 615 188 l 688 231 q 517 -25 674 -25 z "},"3":{"ha":663,"x_min":-7,"x_max":654,"o":"m 96 769 q 208 920 124 854 q 405 986 293 986 q 585 926 517 986 q 654 779 654 865 q 590 627 654 693 q 431 536 526 561 q 585 456 525 519 q 646 290 646 392 q 539 73 646 163 q 289 -17 432 -17 q 42 75 133 -17 q -7 188 -7 122 q 4 238 -7 208 q 32 285 15 268 q 63 288 46 288 q 214 235 161 288 l 194 88 q 260 72 214 72 q 380 145 329 72 q 431 318 431 218 q 386 455 431 418 q 239 492 342 492 l 207 490 l 215 561 q 317 584 283 568 q 381 622 351 600 q 446 763 446 669 q 415 849 446 821 q 340 878 383 878 q 157 743 226 878 l 96 769 z "},"4":{"ha":761,"x_min":-33,"x_max":792,"o":"m 708 219 q 639 200 679 200 q 567 206 599 200 q 553 22 553 101 q 335 -6 499 -6 l 321 -6 q 360 246 321 56 q 203 260 272 260 q 81 242 135 260 l 26 222 q 25 222 26 222 q -10 253 11 222 q -33 310 -32 283 q -8 344 -33 319 q 433 963 210 654 q 681 986 522 982 q 699 908 699 958 q 683 776 699 857 q 638 571 667 696 q 593 365 608 446 q 676 363 646 363 q 719 383 706 363 l 742 421 l 792 404 q 708 219 771 260 m 390 389 q 481 861 479 779 q 167 406 353 714 q 390 389 260 404 z "},"5":{"ha":668,"x_min":11,"x_max":700,"o":"m 304 965 l 603 978 q 692 960 656 978 q 700 906 700 940 q 675 779 700 842 l 668 760 q 508 806 603 806 q 269 797 340 806 q 238 642 253 733 q 518 572 404 636 q 614 476 579 539 q 649 328 649 414 q 543 86 649 189 q 292 -17 438 -17 q 99 40 186 -17 q 11 185 11 96 q 44 288 11 250 q 68 289 53 289 q 222 231 167 289 l 213 83 q 269 68 235 68 q 390 147 344 68 q 435 348 435 226 q 371 520 435 469 q 178 571 307 571 l 154 571 l 126 608 q 165 790 140 656 q 207 971 190 925 q 304 965 247 965 z "},"6":{"ha":760,"x_min":71,"x_max":757,"o":"m 510 900 q 376 798 429 900 q 299 529 322 696 q 490 583 383 583 q 655 513 597 583 q 713 317 713 443 q 613 88 713 192 q 364 -17 513 -17 q 71 350 71 -17 q 127 667 71 521 q 286 899 183 813 q 515 986 389 986 q 683 938 610 986 q 757 800 757 890 q 724 701 757 736 q 693 700 713 700 q 542 754 592 700 l 563 885 q 510 900 540 900 m 407 486 q 289 439 357 486 q 283 266 283 371 q 303 115 283 161 q 368 69 322 69 q 465 149 433 69 q 497 325 497 228 q 407 486 497 486 z "},"7":{"ha":581,"x_min":51,"x_max":671,"o":"m 238 810 q 82 753 168 810 q 51 906 51 824 q 60 961 51 936 q 206 982 143 982 q 367 973 268 982 q 524 964 467 964 q 650 975 582 964 l 671 926 q 435 466 521 703 q 331 22 350 229 q 256 3 318 13 q 146 -6 194 -6 l 117 -6 q 169 228 131 111 q 458 797 235 429 q 238 810 351 810 z "},"8":{"ha":694,"x_min":56,"x_max":694,"o":"m 629 271 q 528 64 629 143 q 308 -15 426 -15 q 122 43 189 -15 q 56 194 56 101 q 278 501 56 351 q 169 767 169 669 q 259 926 169 865 q 463 986 349 986 q 636 936 578 986 q 694 814 694 886 q 514 533 694 693 q 550 478 524 517 q 590 414 576 439 q 629 271 629 347 m 176 201 q 213 111 176 144 q 306 78 249 78 q 407 106 364 78 q 450 182 450 135 q 390 331 450 236 q 329 424 369 363 q 176 201 176 319 m 578 813 q 485 893 578 893 q 399 872 435 893 q 364 812 364 850 q 401 708 364 774 q 463 611 438 643 q 541 706 504 644 q 578 813 578 768 z "},"9":{"ha":733,"x_min":35,"x_max":726,"o":"m 94 186 q 261 93 172 93 q 493 421 444 93 q 329 382 419 382 q 147 453 213 382 q 81 639 81 525 q 183 886 81 786 q 433 986 286 986 q 653 895 579 986 q 726 623 726 804 q 679 302 726 442 q 533 73 632 163 q 303 -17 435 -17 q 133 31 200 -17 q 35 138 67 79 l 94 186 m 396 479 q 503 510 453 479 q 510 687 510 589 q 492 842 510 785 q 417 899 475 899 q 328 822 360 899 q 297 642 297 744 q 396 479 297 479 z "}," ":{"ha":278,"x_min":0,"x_max":0,"o":""},"!":{"ha":414,"x_min":47,"x_max":400,"o":"m 149 -17 q 124 -17 149 -17 q 74 13 100 -17 q 47 90 47 42 q 83 174 47 139 q 169 210 119 210 q 244 181 218 210 q 271 105 271 153 q 234 20 271 57 q 149 -17 197 -17 m 400 922 q 310 490 400 785 q 284 405 303 467 q 256 310 265 343 q 190 297 218 297 q 139 300 161 297 q 189 832 189 601 l 181 949 q 392 986 299 986 q 400 922 400 974 z "},"\"":{"ha":514,"x_min":111,"x_max":510,"o":"m 179 1017 q 288 937 288 1017 q 172 599 288 857 l 111 608 l 138 1014 q 179 1017 165 1017 m 401 1017 q 510 937 510 1017 q 394 599 510 857 l 333 608 l 360 1014 q 401 1017 388 1017 z "},"#":{"ha":824,"x_min":28,"x_max":818,"o":"m 444 -17 l 432 -17 q 467 231 433 28 q 399 233 422 233 l 326 233 q 294 8 303 107 q 160 -17 244 -17 l 146 -17 q 186 229 147 42 q 46 215 79 224 q 28 342 32 260 q 179 349 93 349 l 211 349 q 243 508 232 444 q 90 494 126 503 q 64 621 72 539 q 219 628 133 628 l 264 628 q 282 774 282 736 q 279 824 282 813 q 425 857 365 857 q 431 803 431 839 q 404 625 431 767 l 529 619 q 546 776 546 740 q 543 824 546 813 q 689 857 631 857 q 694 799 694 839 q 671 613 694 758 l 681 613 q 815 621 757 613 q 818 569 818 603 q 763 493 818 493 q 651 499 724 493 q 638 417 647 472 q 624 333 628 363 l 640 333 q 775 342 717 333 q 778 290 778 314 q 722 214 778 214 q 606 219 681 214 q 581 8 585 81 q 444 -17 529 -17 m 439 513 l 382 513 q 366 438 378 496 q 347 346 354 379 l 486 340 l 514 510 q 439 513 464 513 z "},"$":{"ha":657,"x_min":22,"x_max":633,"o":"m 600 272 q 517 78 600 153 q 311 -12 435 3 q 297 -164 297 -117 q 208 -146 260 -164 l 232 -15 q 86 37 143 -10 q 22 117 29 83 q 88 219 38 163 q 178 289 138 276 q 310 85 249 243 q 375 110 350 86 q 400 185 400 135 q 358 313 400 236 q 265 458 315 390 q 173 609 215 525 q 131 758 131 693 q 217 925 131 864 q 424 986 303 986 l 432 986 q 444 1114 442 1061 q 533 1096 482 1114 l 511 974 q 601 916 568 956 q 633 827 633 876 q 589 717 633 778 q 500 619 544 656 l 456 583 q 496 526 472 561 q 560 408 519 492 q 600 272 600 325 m 494 728 q 503 737 494 728 q 528 772 513 746 q 543 826 543 797 q 510 874 543 854 q 430 893 476 893 q 352 872 383 893 q 321 820 321 850 q 341 751 321 790 q 381 685 361 711 l 401 658 q 445 688 415 665 q 494 728 475 710 z "},"%":{"ha":1129,"x_min":57,"x_max":1119,"o":"m 328 1021 q 453 967 413 1021 q 494 830 494 913 q 468 672 494 747 q 377 540 442 596 q 227 485 313 485 q 99 538 142 485 q 57 679 57 592 q 133 926 57 831 q 328 1021 208 1021 m 243 549 q 322 686 293 549 q 339 860 339 764 q 303 957 339 957 q 228 819 257 957 q 213 644 213 740 q 243 549 213 549 m 953 517 q 1078 463 1038 517 q 1119 326 1119 408 q 1093 167 1119 243 q 1002 36 1067 92 q 852 -19 938 -19 q 724 34 767 -19 q 682 175 682 88 q 758 422 682 326 q 953 517 833 517 m 868 44 q 947 182 918 44 q 964 356 964 260 q 928 453 964 453 q 853 314 882 453 q 838 140 838 236 q 868 44 838 44 m 893 974 q 734 651 828 825 q 564 319 640 476 q 429 -15 488 161 q 369 0 406 -14 q 303 38 331 14 q 525 529 368 222 q 753 1019 682 836 q 893 974 857 999 z "},"&":{"ha":1132,"x_min":114,"x_max":1122,"o":"m 536 438 q 578 397 544 397 q 665 425 613 397 q 764 485 718 453 q 869 546 810 518 q 985 574 929 574 q 1082 536 1042 574 q 1122 437 1122 499 q 1079 328 1122 375 q 972 282 1036 282 q 794 368 888 282 q 796 328 796 354 q 689 73 796 174 q 436 -28 582 -28 q 232 33 333 -28 q 147 124 181 65 q 114 261 114 183 q 205 477 114 394 q 414 572 296 560 q 243 763 243 617 q 328 926 243 867 q 523 986 413 986 q 708 938 633 986 q 782 810 782 890 q 750 721 782 758 q 668 683 718 683 q 583 713 618 683 q 549 794 549 743 q 611 896 549 865 q 582 899 592 899 q 504 869 535 899 q 456 769 456 824 q 468 682 456 714 q 504 633 481 650 q 585 599 540 608 q 588 598 586 599 q 592 597 590 597 l 579 531 l 571 531 q 407 465 478 531 q 336 297 336 400 q 385 149 336 193 q 504 104 435 104 q 654 178 596 104 q 729 356 713 253 q 589 315 642 315 q 508 342 536 315 q 476 415 479 368 q 536 438 496 435 m 1038 417 q 1038 426 1038 417 q 1024 449 1038 436 q 975 463 1011 463 q 858 422 939 463 q 982 365 922 365 q 1022 382 1006 367 q 1038 417 1038 397 m 661 756 q 699 818 699 756 q 675 867 699 843 q 638 840 653 860 q 624 799 624 821 q 635 766 624 776 q 661 756 647 756 z "},"'":{"ha":300,"x_min":124,"x_max":300,"o":"m 192 1017 q 300 937 300 1017 q 185 599 300 857 l 124 608 l 150 1014 q 192 1017 178 1017 z "},"(":{"ha":479,"x_min":110,"x_max":532,"o":"m 274 113 q 289 -106 274 -32 q 347 -256 304 -179 l 285 -317 q 227 -247 261 -297 q 170 -142 193 -197 q 128 12 147 -86 q 110 249 110 110 q 148 530 110 388 q 239 758 186 672 q 349 907 292 844 q 440 994 406 969 q 481 1019 475 1019 l 532 950 q 274 113 274 731 z "},")":{"ha":518,"x_min":8,"x_max":431,"o":"m 267 586 q 251 808 267 738 q 193 958 235 879 l 256 1019 q 313 950 279 1000 q 370 844 347 900 q 412 691 393 789 q 431 454 431 593 q 392 173 431 315 q 301 -56 354 31 q 192 -204 249 -142 q 100 -292 135 -267 q 60 -317 65 -317 l 8 -247 q 267 586 267 -28 z "},"*":{"ha":532,"x_min":53,"x_max":560,"o":"m 369 735 q 442 700 413 700 q 506 711 472 700 q 535 674 522 701 q 547 628 547 647 q 546 604 547 610 q 458 564 510 564 q 432 571 447 564 q 377 622 417 578 q 314 711 338 667 q 290 647 290 668 q 308 576 290 614 l 315 564 q 273 524 303 543 q 217 504 243 504 q 176 544 193 518 q 160 598 160 571 q 197 670 160 625 q 279 751 235 715 q 236 756 258 756 q 203 753 214 756 q 174 739 192 750 q 147 717 157 728 l 138 707 q 85 733 114 711 q 53 782 56 756 q 84 838 58 811 q 133 865 110 865 q 205 846 156 865 q 296 800 254 826 q 286 867 293 853 q 236 914 274 890 l 224 921 q 238 984 224 954 q 274 1022 253 1014 q 335 1006 304 1022 q 375 967 367 989 q 378 940 378 956 q 353 789 378 860 q 408 825 397 811 q 433 892 428 849 l 436 906 q 497 914 461 914 q 549 897 532 914 q 560 840 560 875 q 542 788 560 806 q 472 754 524 769 q 369 735 419 739 z "},"+":{"ha":699,"x_min":89,"x_max":614,"o":"m 410 331 l 410 132 q 294 119 382 119 l 282 119 l 282 331 l 89 331 q 94 453 89 413 l 282 453 l 282 646 q 408 657 326 657 l 408 453 l 614 453 q 610 331 614 342 l 410 331 z "},",":{"ha":326,"x_min":33,"x_max":278,"o":"m 33 22 q 111 210 33 122 q 231 167 183 210 q 278 68 278 125 q 108 -267 278 -74 l 50 -229 q 143 -44 136 -99 l 33 22 z "},"-":{"ha":513,"x_min":75,"x_max":461,"o":"m 75 331 q 79 449 75 417 l 461 449 q 457 331 461 353 l 75 331 z "},".":{"ha":344,"x_min":60,"x_max":283,"o":"m 161 -17 q 137 -17 161 -17 q 86 13 113 -17 q 60 90 60 42 q 96 174 60 139 q 181 210 132 210 q 257 181 231 210 q 283 105 283 153 q 247 20 283 57 q 161 -17 210 -17 z "},"/":{"ha":501,"x_min":-7,"x_max":529,"o":"m 529 993 q 100 -153 300 411 q -7 -100 46 -153 q 415 1039 233 567 q 529 993 478 1029 z "},":":{"ha":442,"x_min":90,"x_max":365,"o":"m 192 -17 q 167 -17 192 -17 q 117 13 143 -17 q 90 90 90 42 q 126 174 90 139 q 212 210 163 210 q 288 181 261 210 q 314 105 314 153 q 277 20 314 57 q 192 -17 240 -17 m 243 388 q 219 388 243 388 q 168 417 194 388 q 142 494 142 446 q 178 578 142 543 q 263 614 214 614 q 339 585 313 614 q 365 509 365 557 q 328 424 365 461 q 243 388 292 388 z "},";":{"ha":444,"x_min":79,"x_max":365,"o":"m 243 388 q 219 388 243 388 q 168 417 194 388 q 142 494 142 446 q 178 578 142 543 q 263 614 214 614 q 339 585 313 614 q 365 509 365 557 q 328 424 365 461 q 243 388 292 388 m 79 22 q 157 210 79 122 q 276 167 229 210 q 324 68 324 125 q 154 -267 324 -74 l 96 -229 q 189 -44 182 -99 l 79 22 z "},"<":{"ha":585,"x_min":56,"x_max":543,"o":"m 214 393 l 543 269 q 531 146 543 182 l 56 339 l 56 443 l 531 660 q 543 536 543 625 l 214 393 z "},"=":{"ha":739,"x_min":118,"x_max":646,"o":"m 118 221 q 132 346 118 307 l 646 346 q 638 221 646 253 l 118 221 m 118 438 q 133 563 118 519 l 646 563 q 638 438 646 492 l 118 438 z "},">":{"ha":563,"x_min":76,"x_max":564,"o":"m 76 269 l 406 393 l 76 536 q 94 657 76 607 l 564 443 l 564 339 l 89 146 q 76 269 76 182 z "},"?":{"ha":538,"x_min":7,"x_max":469,"o":"m 469 753 q 438 644 469 700 q 367 547 406 588 q 265 396 265 442 q 288 369 265 382 q 338 354 311 356 q 313 286 325 304 q 148 328 213 286 q 83 449 83 371 q 140 576 83 496 q 254 733 197 656 q 311 860 311 811 q 263 917 311 908 q 146 750 226 822 q 60 806 113 760 q 7 871 7 851 q 75 947 7 907 q 233 986 143 986 q 397 929 324 986 q 469 753 469 872 m 74 10 q 60 24 74 10 q 46 83 46 38 q 84 164 46 129 q 172 199 122 199 q 250 171 222 199 q 278 98 278 143 q 238 18 278 53 q 150 -17 199 -17 q 74 10 101 -17 z "},"@":{"ha":1075,"x_min":67,"x_max":1054,"o":"m 503 -17 q 178 109 289 -17 q 67 424 67 235 q 106 636 67 535 q 217 815 146 738 q 394 940 288 893 q 626 986 501 986 q 940 879 826 986 q 1054 601 1054 772 q 1018 428 1054 507 q 929 305 982 350 q 826 235 876 260 q 742 211 776 211 q 663 286 682 211 q 501 211 572 211 q 385 260 429 211 q 342 446 342 308 q 414 678 342 583 q 600 774 486 774 q 677 764 643 774 q 747 743 711 754 q 808 725 782 732 q 758 351 758 529 q 762 317 758 326 q 778 307 765 307 q 880 394 825 307 q 935 603 935 481 q 863 812 935 725 q 628 899 790 899 q 319 763 435 899 q 203 459 203 628 q 282 184 203 290 q 518 78 361 78 q 660 108 597 78 q 688 33 679 78 l 690 19 q 503 -17 597 -17 m 542 313 q 633 363 586 313 q 672 671 647 564 q 606 689 636 689 q 513 619 547 689 q 478 431 478 550 q 542 313 478 313 z "},"A":{"ha":1063,"x_min":-40,"x_max":1215,"o":"m 153 -67 q 15 -12 69 -67 q -40 116 -40 43 q -6 252 -40 189 q 94 369 29 315 q 263 459 158 424 q 493 499 367 494 q 624 906 567 681 q 625 927 625 914 q 611 950 625 940 l 611 964 q 829 986 731 986 l 913 981 q 953 803 949 917 q 958 411 957 690 q 1215 246 1108 346 q 1194 210 1210 228 q 1164 185 1178 193 l 1150 176 q 960 314 1068 257 q 975 181 963 235 q 1021 92 994 92 q 1057 99 1036 92 l 1078 44 q 894 -17 982 -17 q 750 201 750 -17 l 750 383 q 574 413 653 407 q 153 -67 393 -67 m 458 414 q 197 304 301 401 q 93 122 93 207 q 158 38 93 38 q 458 414 292 38 m 735 875 q 724 876 732 876 q 713 875 715 876 q 604 496 700 769 q 750 476 672 492 q 735 875 750 818 z "},"B":{"ha":956,"x_min":-60,"x_max":1090,"o":"m 547 568 q 631 632 590 578 q 671 767 671 686 q 613 886 671 849 q 436 924 556 924 q 145 856 258 924 q 32 710 32 788 q 63 645 32 669 q 124 613 93 621 q 86 510 119 558 q -14 567 32 519 q -60 692 -60 615 q 92 917 -60 828 q 483 1007 243 1007 q 776 949 668 1007 q 885 769 885 890 q 819 613 885 675 q 653 518 754 550 q 814 442 754 503 q 1019 471 925 471 l 1088 467 q 1090 447 1090 457 q 1076 371 1090 399 q 976 379 1039 379 q 863 364 913 379 q 881 254 881 313 q 796 21 881 113 q 601 -71 711 -71 q 476 -26 526 -71 q 426 105 426 19 q 490 267 426 190 q 644 389 553 344 q 515 482 608 482 l 506 482 q 510 564 497 518 q 547 568 531 564 m 278 719 q 272 758 278 746 q 244 794 265 771 l 246 804 q 429 847 319 847 q 493 840 472 847 q 500 781 500 826 q 428 447 500 736 q 344 15 357 157 q 163 -8 263 -8 q 128 -4 139 -8 q 206 360 135 83 q 278 719 278 636 m 568 47 q 635 116 606 47 q 664 271 664 185 l 663 294 q 565 224 611 275 q 518 114 518 172 q 534 63 518 79 q 568 47 550 47 z "},"C":{"ha":757,"x_min":68,"x_max":993,"o":"m 375 -17 q 153 87 238 -17 q 68 361 68 190 q 127 672 68 532 q 296 899 186 811 q 539 986 406 986 q 628 971 589 986 q 835 1038 728 1038 q 928 1023 885 1038 q 993 988 972 1008 q 957 901 982 940 q 825 950 892 950 q 703 924 758 950 q 768 727 768 854 q 701 496 768 600 q 535 392 635 392 q 438 442 475 392 q 401 567 401 492 q 536 893 401 747 q 358 749 426 889 q 290 413 290 610 q 457 125 290 125 q 700 267 571 125 l 749 226 q 690 147 731 194 q 608 68 649 100 q 504 10 568 36 q 375 -17 440 -17 m 672 713 q 621 868 672 826 q 523 736 560 814 q 486 575 486 658 q 502 504 486 532 q 543 476 518 476 q 635 553 597 476 q 672 713 672 629 z "},"D":{"ha":1090,"x_min":33,"x_max":1086,"o":"m 33 114 q 33 144 33 114 q 79 211 33 174 q 189 249 125 249 q 321 218 253 249 q 353 315 328 235 q 401 524 379 394 q 424 708 424 654 q 393 790 424 763 l 393 804 q 582 846 474 846 l 640 840 q 647 776 647 824 q 592 448 647 621 q 447 153 536 275 q 613 100 547 100 q 730 159 678 100 q 811 306 782 218 q 874 633 874 486 q 796 850 874 779 q 565 921 718 921 q 281 833 411 921 q 151 631 151 746 q 175 558 151 582 q 239 521 199 535 q 208 414 238 468 q 106 477 151 425 q 60 619 60 529 q 218 897 60 786 q 614 1007 376 1007 q 946 914 814 1007 q 1049 784 1013 867 q 1086 573 1086 701 q 1029 306 1086 444 q 863 75 972 168 q 628 -18 754 -18 q 372 69 503 -18 q 183 -17 279 -17 q 76 19 118 -17 q 33 114 33 54 m 179 89 q 271 136 231 89 q 189 165 219 165 q 125 128 125 165 q 139 100 125 111 q 179 89 153 89 z "},"E":{"ha":765,"x_min":72,"x_max":983,"o":"m 803 960 q 696 936 747 960 q 754 818 754 889 q 717 693 754 747 q 623 639 679 639 q 533 674 567 639 q 499 772 499 710 q 540 894 499 835 q 429 840 475 890 q 383 706 383 789 q 417 558 383 622 q 513 568 464 568 q 669 474 669 568 q 638 402 669 433 q 534 371 607 371 q 375 422 461 371 q 294 253 294 346 q 333 151 294 192 q 439 111 372 111 q 578 156 506 111 q 706 263 650 200 l 756 218 q 656 106 719 165 q 369 -17 526 -17 q 172 39 263 -17 q 100 119 128 68 q 72 238 72 171 q 269 514 72 421 q 200 708 200 601 q 297 913 200 840 q 525 986 394 986 q 621 974 578 986 q 825 1038 714 1038 q 920 1024 876 1038 q 983 990 964 1010 q 953 914 981 944 l 943 904 q 803 960 894 960 m 672 794 q 619 882 672 854 q 578 776 578 838 q 621 715 578 715 q 658 738 643 715 q 672 794 672 761 m 594 469 q 578 492 594 483 q 533 501 563 501 q 465 485 503 501 q 549 444 504 444 q 594 469 594 444 z "},"F":{"ha":781,"x_min":-18,"x_max":938,"o":"m 888 771 q 727 826 818 826 q 490 790 636 826 q 513 635 513 714 q 508 507 513 556 q 628 518 568 518 q 744 496 688 518 q 719 400 744 435 q 575 424 657 424 q 499 415 551 424 q 373 73 467 200 q 153 -54 279 -54 q 29 -8 76 -54 q -18 114 -18 38 q 69 312 -18 218 q 297 461 156 406 q 307 584 307 503 q 292 726 307 665 q 214 718 257 718 q 84 756 132 718 q 36 852 36 793 q 92 949 36 911 q 236 986 147 986 q 444 882 371 986 q 599 963 553 940 q 783 1019 711 1019 q 896 954 854 1019 q 938 807 938 889 q 888 771 932 796 m 132 79 q 222 160 182 79 q 282 357 263 240 q 140 260 197 324 q 82 139 82 196 q 96 95 82 111 q 132 79 110 79 m 140 840 q 163 806 140 818 q 214 794 186 794 q 264 803 242 794 q 176 871 229 871 q 140 840 140 871 z "},"G":{"ha":760,"x_min":68,"x_max":1107,"o":"m 1107 -394 q 1035 -476 1083 -440 q 935 -512 988 -512 q 839 -497 883 -512 q 745 -449 794 -482 q 663 -391 696 -417 q 572 -317 629 -365 q 492 -251 515 -269 q 300 -333 407 -333 q 188 -299 232 -333 q 144 -206 144 -264 q 191 -108 144 -149 q 304 -67 238 -67 q 435 -89 371 -67 q 488 114 471 -7 q 353 76 428 76 q 147 170 226 76 q 68 414 68 264 q 126 692 68 564 q 294 903 185 821 q 535 986 403 986 q 622 972 581 986 q 831 1038 726 1038 q 989 988 936 1038 q 950 901 978 932 q 826 950 894 950 q 699 924 758 950 q 763 744 763 856 q 737 588 763 664 q 656 459 711 513 q 533 406 600 406 q 431 457 465 406 q 396 589 396 508 q 525 890 396 751 q 356 759 422 883 q 290 480 290 635 q 331 267 290 325 q 432 208 371 208 q 615 343 533 208 l 726 317 q 569 -154 671 13 q 672 -215 590 -165 q 790 -283 753 -264 q 892 -323 826 -301 q 1013 -344 957 -344 l 1075 -340 q 1107 -394 1099 -374 m 538 490 q 566 490 538 490 q 630 563 594 490 q 665 732 665 636 q 613 869 665 828 q 516 742 551 817 q 481 603 481 667 q 538 490 481 490 m 293 -229 q 388 -179 343 -229 q 294 -151 336 -151 q 235 -192 235 -151 q 253 -219 235 -210 q 293 -229 271 -229 z "},"H":{"ha":1054,"x_min":22,"x_max":1190,"o":"m 813 -17 q 777 -17 813 -17 q 707 22 740 -17 q 674 123 674 60 q 736 464 674 186 q 547 442 618 461 q 424 103 507 246 q 319 -12 381 31 q 186 -54 258 -54 q 68 -6 114 -54 q 22 119 22 42 q 114 328 22 231 q 346 486 206 426 q 358 695 358 614 q 342 810 358 776 q 292 843 326 843 q 200 817 257 843 q 93 749 143 792 l 58 799 q 206 915 108 860 q 393 969 303 969 q 575 693 575 969 q 564 536 575 628 q 757 560 654 554 q 804 907 804 779 q 801 943 804 931 q 1025 986 913 986 q 1029 947 1029 975 q 961 554 1029 861 q 1189 521 1128 542 q 1190 500 1190 515 q 1164 426 1190 471 q 942 463 1074 454 q 893 160 893 229 q 926 92 893 92 q 965 99 944 92 l 986 44 q 813 -17 886 -17 m 172 79 q 260 156 217 79 q 329 383 303 232 q 188 279 251 350 q 124 143 124 208 q 138 96 124 113 q 172 79 153 79 z "},"I":{"ha":553,"x_min":10,"x_max":568,"o":"m 379 969 q 568 696 568 969 q 507 317 568 511 q 431 133 475 215 q 322 -2 388 50 q 178 -54 256 -54 q 56 -5 101 -54 q 10 122 10 44 q 101 328 10 233 q 332 486 192 422 q 351 687 351 593 q 333 815 351 781 q 281 850 315 850 q 200 832 247 850 q 110 783 153 814 l 72 839 q 216 930 131 890 q 379 969 301 969 m 318 378 q 174 277 233 342 q 114 147 114 213 q 165 81 114 81 q 251 153 210 82 q 318 378 292 225 z "},"J":{"ha":554,"x_min":-110,"x_max":672,"o":"m 340 969 q 382 969 340 969 q 458 900 425 969 q 492 683 492 831 q 454 350 492 536 q 594 361 539 361 q 668 361 650 361 q 671 328 671 350 q 658 265 671 306 q 547 269 608 271 q 435 261 485 268 q 297 -94 383 47 q 190 -214 251 -171 q 54 -257 128 -257 q -65 -206 -19 -257 q -110 -74 -110 -154 q -12 152 -110 47 q 228 310 86 257 q 272 682 272 497 q 259 803 272 771 q 221 835 246 835 q 46 765 158 835 l 8 821 q 163 923 71 876 q 340 969 254 969 m -14 -60 q -3 -106 -14 -89 q 39 -129 13 -129 q 131 -42 83 -128 q 213 204 179 44 q 53 94 119 169 q -14 -60 -14 18 z "},"K":{"ha":836,"x_min":61,"x_max":911,"o":"m 906 886 q 810 666 906 776 q 586 479 715 556 q 663 321 615 450 q 738 122 710 192 q 805 -12 765 51 q 885 -76 844 -76 q 897 -75 893 -76 l 911 -125 q 756 -179 843 -179 q 632 -134 668 -179 q 565 51 596 -89 q 542 167 561 69 q 472 428 499 379 q 439 426 464 426 q 401 436 414 426 q 392 483 392 446 q 399 541 392 521 q 445 561 406 561 q 521 538 485 561 q 644 665 571 571 q 683 826 683 736 q 676 911 683 867 q 770 958 722 940 q 843 978 818 975 l 868 981 q 906 886 906 958 m 224 863 q 190 932 224 894 l 192 942 q 379 986 268 986 q 443 979 422 986 q 450 937 450 964 q 446 876 450 910 q 438 816 442 842 q 424 742 435 790 q 407 672 413 693 q 278 15 293 232 q 96 -8 196 -8 q 61 -4 72 -8 q 146 426 68 82 q 224 863 224 771 z "},"L":{"ha":656,"x_min":-36,"x_max":808,"o":"m 808 -78 q 742 -159 788 -122 q 646 -196 697 -196 q 545 -167 594 -196 q 465 -110 496 -139 q 378 -19 435 -81 q 301 63 322 42 q 122 -17 228 -17 q 8 18 53 -17 q -36 110 -36 53 q 12 209 -36 168 q 140 250 60 250 q 232 235 186 250 q 254 428 246 303 q 116 499 169 443 q 63 656 63 556 q 75 754 63 694 q 115 757 90 757 q 167 738 140 757 q 149 649 149 704 q 258 510 149 536 q 275 723 264 661 q 314 841 286 785 q 406 942 342 897 q 571 986 471 986 q 726 927 671 986 q 781 788 781 868 q 677 560 781 675 q 421 421 574 446 q 358 167 378 233 q 440 104 381 150 q 530 37 499 58 q 615 -6 561 15 q 718 -28 668 -28 l 776 -24 q 808 -78 800 -57 m 688 775 q 666 843 688 817 q 608 869 644 869 q 472 667 515 869 q 439 506 449 556 q 615 608 542 524 q 688 775 688 692 m 110 88 q 196 140 158 88 q 115 165 156 165 q 56 126 56 165 q 72 97 56 107 q 110 88 89 88 z "},"M":{"ha":1468,"x_min":24,"x_max":1426,"o":"m 1388 46 q 1218 -17 1297 -17 q 1106 21 1139 -17 q 1074 119 1074 58 q 1139 434 1074 181 q 1204 749 1204 688 q 1150 825 1204 825 q 1003 744 1096 825 q 957 575 1000 733 q 856 15 863 228 q 660 -6 801 -6 l 642 -6 q 715 392 642 81 q 789 754 789 703 q 732 825 789 825 q 572 739 671 825 q 472 208 572 456 q 349 19 425 92 q 194 -54 274 -54 q 69 -6 114 -54 q 24 127 24 42 q 85 328 24 213 q 215 527 146 444 q 356 676 283 610 q 325 831 356 804 q 281 843 310 843 q 198 818 253 843 q 93 750 143 793 l 58 799 q 204 914 107 858 q 377 969 301 969 q 497 930 453 969 q 558 829 540 890 q 861 986 750 986 q 956 951 917 986 q 1007 847 996 917 q 1281 986 1171 986 q 1384 938 1342 986 q 1426 806 1426 889 q 1358 474 1426 724 q 1290 158 1290 224 q 1332 92 1290 92 q 1367 99 1346 92 l 1388 46 m 167 78 q 277 216 222 78 q 351 563 332 354 q 192 345 263 471 q 121 149 121 219 q 167 78 121 78 z "},"N":{"ha":1058,"x_min":24,"x_max":1033,"o":"m 571 717 l 572 690 q 546 456 572 582 q 472 214 519 329 q 349 22 425 99 q 194 -54 274 -54 q 69 -7 114 -54 q 24 124 24 40 q 131 410 24 256 q 356 667 238 565 q 325 829 356 800 q 281 843 310 843 q 198 818 253 843 q 93 750 143 793 l 58 799 q 205 915 108 860 q 389 969 301 969 q 561 808 528 969 q 888 986 764 986 q 991 938 949 986 q 1033 806 1033 889 q 965 474 1033 724 q 897 158 897 224 q 939 92 897 92 q 974 99 953 92 l 994 46 q 825 -17 904 -17 q 713 21 746 -17 q 681 119 681 58 q 746 434 681 181 q 811 749 811 688 q 756 825 811 825 q 571 717 689 825 m 167 78 q 277 211 222 78 q 351 553 332 344 q 198 354 275 482 q 121 144 121 226 q 134 94 121 111 q 167 78 147 78 z "},"O":{"ha":878,"x_min":44,"x_max":1028,"o":"m 1007 447 q 1028 365 1022 410 q 931 325 996 346 q 808 300 865 304 q 640 70 747 157 q 372 -17 532 -17 q 128 91 213 -17 q 44 390 44 199 q 133 738 44 581 q 388 985 222 896 l 417 936 q 267 399 267 749 q 336 108 267 171 q 417 78 368 78 q 617 314 554 78 q 450 406 508 333 q 392 610 392 479 q 467 847 392 742 q 648 951 542 951 q 814 858 754 951 q 874 617 874 764 q 836 390 874 524 q 981 433 899 393 l 1007 447 m 654 620 q 654 670 654 620 q 643 767 654 719 q 590 815 632 815 q 513 753 549 815 q 478 601 478 692 q 518 460 478 511 q 632 403 558 410 q 654 620 654 521 z "},"P":{"ha":824,"x_min":-60,"x_max":896,"o":"m 278 719 q 272 758 278 746 q 244 794 265 771 l 246 804 q 429 847 319 847 q 493 840 472 847 q 500 783 500 826 q 433 469 500 739 q 503 457 464 457 q 613 503 569 457 q 669 602 656 549 q 682 715 682 656 q 623 874 682 825 q 432 924 564 924 q 146 854 260 924 q 32 708 32 785 q 62 645 32 669 q 124 613 92 621 q 89 510 118 563 q -12 565 36 517 q -60 693 -60 614 q 99 921 -60 835 q 468 1007 257 1007 q 788 937 679 1007 q 896 719 896 867 q 742 428 896 526 q 542 374 658 374 q 415 396 468 374 q 344 15 357 158 q 163 -8 263 -8 q 128 -4 139 -8 q 206 360 135 83 q 278 719 278 636 z "},"Q":{"ha":879,"x_min":40,"x_max":949,"o":"m 882 599 q 778 201 882 390 q 517 -110 674 11 q 631 -181 589 -157 q 738 -229 672 -206 q 858 -253 803 -253 l 917 -249 q 949 -303 940 -282 q 881 -386 925 -351 q 778 -421 836 -421 q 682 -398 725 -421 q 617 -362 639 -375 q 560 -321 594 -349 q 509 -278 526 -293 q 453 -230 492 -264 q 403 -185 415 -196 q 210 -242 292 -242 q 84 -207 128 -242 q 40 -115 40 -172 q 85 -16 40 -57 q 209 25 129 25 q 403 -39 289 25 q 586 222 513 57 q 660 615 660 388 q 535 892 660 892 q 365 740 432 892 q 297 394 297 589 q 340 256 297 256 q 402 326 375 256 q 429 465 429 396 q 421 581 429 535 q 507 597 461 597 l 510 597 q 515 515 515 561 q 452 226 515 339 q 278 114 389 114 q 138 190 188 114 q 89 413 89 267 q 148 692 89 560 q 318 905 207 824 q 568 986 429 986 q 843 814 769 986 q 882 599 882 722 m 131 -100 q 203 -139 131 -139 q 304 -106 242 -139 q 188 -60 236 -60 q 146 -72 161 -60 q 131 -100 131 -85 z "},"R":{"ha":881,"x_min":-62,"x_max":964,"o":"m 529 392 q 493 390 519 390 q 454 400 467 390 q 444 447 444 410 q 451 505 444 485 q 495 525 458 525 q 565 507 532 525 q 640 601 606 538 q 675 733 675 665 q 616 878 675 832 q 433 924 557 924 q 142 854 256 924 q 29 707 29 785 q 60 645 29 669 q 121 613 90 621 q 86 510 115 557 q -15 566 32 518 q -62 696 -62 614 q 94 919 -62 832 q 483 1007 251 1007 q 778 938 669 1007 q 886 733 886 868 q 815 563 886 639 q 644 439 744 488 q 687 372 668 415 q 717 302 706 329 q 736 258 729 275 q 756 211 743 242 q 853 -6 810 64 q 938 -76 897 -76 q 950 -75 946 -76 l 964 -125 q 808 -179 896 -179 q 685 -134 721 -179 q 618 51 649 -89 q 594 153 614 65 q 529 392 556 339 m 261 725 q 228 794 261 757 l 229 804 q 413 847 303 847 q 476 840 456 847 q 483 797 483 825 q 412 447 483 736 q 328 15 340 158 q 146 -8 246 -8 q 111 -4 122 -8 q 190 359 118 85 q 261 725 261 633 z "},"S":{"ha":821,"x_min":-51,"x_max":886,"o":"m 401 -31 q 351 -31 401 -31 q 249 17 301 -31 q 196 138 196 64 q 262 260 196 213 q 417 326 328 307 q 307 490 401 351 q 197 478 250 478 q 15 538 81 478 q -51 703 -51 599 q -39 804 -51 747 l -36 821 q 57 804 21 819 q 33 692 33 750 q 76 598 33 633 q 182 563 119 563 q 256 572 211 563 q 193 761 193 681 q 278 926 193 865 q 470 986 363 986 q 637 937 578 986 q 696 815 696 888 q 642 680 696 742 q 521 579 588 618 q 656 319 621 451 q 886 263 772 304 q 850 163 867 193 q 767 210 819 186 q 668 239 714 233 l 668 238 q 584 49 668 128 q 401 -31 500 -31 m 467 654 q 563 724 521 679 q 606 810 606 769 q 574 872 606 850 q 494 893 543 893 q 415 872 446 893 q 383 817 383 851 q 394 771 383 794 q 413 733 406 747 q 429 706 419 719 q 445 683 439 692 q 467 654 451 675 m 367 72 q 386 72 367 72 q 433 108 404 72 q 461 181 461 143 q 453 246 461 219 q 343 215 397 246 q 289 143 289 185 q 310 93 289 114 q 367 72 331 72 z "},"T":{"ha":832,"x_min":-46,"x_max":932,"o":"m 285 828 q 99 771 169 828 q 49 807 56 793 q 90 955 49 890 q 213 1019 132 1019 q 476 928 296 1019 q 564 888 543 893 q 684 958 618 931 q 799 986 750 986 q 890 957 849 986 q 932 869 932 928 q 885 767 932 811 q 756 722 839 722 q 673 734 718 722 q 618 747 628 746 q 523 628 575 704 q 435 471 471 553 q 468 474 457 474 q 659 412 575 474 q 743 242 743 350 q 663 51 743 133 q 447 -31 583 -31 q 238 60 311 -31 q 165 271 165 150 q 53 92 78 189 q -8 112 21 97 q -46 140 -37 126 q 185 399 8 278 q 292 613 218 507 q 451 800 367 718 q 285 828 364 828 m 647 247 q 647 276 647 247 q 596 344 647 306 q 490 382 544 382 q 399 367 436 382 q 385 253 385 319 q 422 140 385 188 q 516 92 458 92 q 610 140 574 92 q 647 247 647 188 m 844 860 q 805 886 844 886 q 699 828 765 886 q 760 814 724 814 q 820 826 796 814 q 844 860 844 839 z "},"U":{"ha":1018,"x_min":4,"x_max":1092,"o":"m 522 810 q 454 492 522 717 q 386 206 386 268 q 444 144 386 144 q 601 229 501 144 q 625 399 606 300 q 767 847 683 708 q 961 986 850 986 q 1059 948 1026 986 q 1092 847 1092 910 q 822 317 1092 650 q 818 207 818 263 q 857 92 818 92 q 897 97 881 92 l 918 44 q 746 -17 832 -17 q 603 129 621 -17 q 318 -17 436 -17 q 203 27 247 -17 q 160 154 160 71 q 192 312 160 203 q 231 440 225 421 q 4 699 4 533 q 110 899 4 813 q 344 986 215 986 q 522 810 522 986 m 257 540 q 306 793 306 710 q 247 876 306 876 q 139 824 188 876 q 90 708 90 771 q 139 602 90 644 q 257 540 188 560 m 1008 850 q 981 888 1008 888 q 840 465 919 888 q 956 662 903 547 q 1008 850 1008 776 z "},"V":{"ha":921,"x_min":-15,"x_max":983,"o":"m 497 424 q 481 228 481 297 q 524 158 481 158 q 626 222 567 158 q 736 397 685 286 q 799 622 788 508 q 681 885 799 738 q 753 992 708 944 q 828 1058 797 1040 l 858 1078 q 947 1003 910 1078 q 983 839 983 929 q 893 481 983 683 q 668 131 803 278 q 419 -17 533 -17 q 305 37 346 -17 q 264 165 264 90 q 282 411 264 240 q 69 499 153 424 q -15 685 -15 575 q 88 891 -15 796 q 325 986 192 986 q 529 732 529 986 q 519 601 529 668 l 510 519 q 621 560 579 536 l 636 568 q 667 479 665 539 q 497 424 581 439 m 313 731 q 313 767 313 731 q 297 834 313 803 q 237 865 282 865 q 131 813 192 865 q 71 684 71 761 q 135 555 71 607 q 292 503 200 503 q 313 731 313 658 z "},"W":{"ha":1349,"x_min":-14,"x_max":1411,"o":"m 292 171 l 300 407 q 76 497 167 424 q -14 694 -14 571 q 86 891 -14 796 q 325 986 186 986 q 529 721 529 986 q 519 483 529 643 q 508 240 508 322 q 553 158 508 158 q 630 203 579 158 q 715 301 681 249 q 746 676 746 615 q 745 760 746 738 q 742 803 744 782 q 740 834 740 824 q 734 863 739 844 q 728 883 729 881 q 722 907 728 886 q 715 929 715 928 q 947 986 786 967 l 947 985 q 963 845 963 936 q 935 529 963 754 q 907 231 907 304 q 949 158 907 158 q 1052 233 992 158 q 1163 429 1113 308 q 1226 664 1214 550 q 1108 924 1226 776 q 1181 1031 1136 983 q 1256 1097 1225 1079 l 1286 1117 q 1374 1044 1338 1117 q 1411 873 1411 971 q 1358 622 1411 775 q 1226 326 1306 468 q 1038 84 1146 185 q 833 -17 931 -17 q 746 33 783 -17 q 707 161 708 83 q 581 31 647 78 q 447 -17 514 -17 q 336 38 381 -17 q 292 171 292 92 m 313 718 q 313 761 313 718 q 297 835 313 804 q 235 867 281 867 q 131 817 190 867 q 72 686 72 767 q 142 553 72 606 q 306 500 213 500 q 313 718 313 632 z "},"X":{"ha":894,"x_min":-8,"x_max":915,"o":"m 701 229 q 720 190 701 229 q 769 124 740 151 q 813 96 797 96 q 865 106 829 96 l 886 51 q 784 2 844 21 q 678 -17 724 -17 q 519 86 571 -17 q 425 338 490 144 q 194 7 297 172 q 160 -17 181 -17 q 104 -1 139 -17 q 50 39 69 15 q 160 192 103 124 q 240 288 217 260 q 316 372 264 315 q 388 451 368 429 q 326 622 328 619 q 174 578 256 578 q 42 630 93 578 q -8 763 -8 682 q 69 934 -8 865 q 246 1003 147 1003 q 444 885 378 1003 q 544 632 475 829 q 769 963 658 778 q 807 986 782 986 q 915 933 865 986 q 775 740 860 838 q 678 629 747 707 q 585 522 610 551 q 701 229 661 307 m 78 761 q 78 742 78 761 q 105 691 78 722 q 183 660 132 660 q 293 706 235 660 q 272 753 283 729 q 157 851 222 851 q 99 826 121 851 q 78 761 78 800 z "},"Y":{"ha":1047,"x_min":11,"x_max":1107,"o":"m 976 32 q 946 -58 960 -40 q 747 -31 857 -31 l 746 -31 q 375 -311 608 -311 q 265 -273 310 -311 q 221 -181 221 -235 q 256 -85 221 -128 q 347 -14 290 -42 q 563 54 450 35 l 590 157 q 358 75 460 75 q 256 113 294 75 q 218 233 218 151 q 235 364 218 299 q 253 436 251 429 q 84 537 157 465 q 11 718 11 608 q 110 907 11 828 q 325 986 208 986 q 497 927 442 986 q 553 783 553 868 q 494 522 553 699 q 435 299 435 344 q 490 236 435 236 q 625 294 546 236 l 654 440 q 729 758 706 697 q 776 863 753 819 q 824 931 799 907 q 956 986 882 986 q 1068 949 1029 986 q 1107 833 1107 911 q 1044 629 1107 754 q 869 379 981 504 q 782 53 836 192 l 794 53 q 957 36 904 50 l 976 32 m 269 540 q 322 796 322 703 q 251 889 322 889 q 146 840 194 889 q 97 719 97 790 q 150 604 97 649 q 269 540 203 560 m 893 526 q 986 685 949 590 q 1024 833 1024 781 q 1004 886 1024 886 q 967 847 988 886 q 890 525 931 778 l 893 526 m 324 -165 q 371 -199 324 -199 q 466 -156 418 -199 q 543 -43 514 -114 q 394 -87 464 -50 q 324 -165 324 -125 z "},"Z":{"ha":750,"x_min":-49,"x_max":789,"o":"m 444 985 q 461 1107 461 1061 q 456 1178 461 1153 q 512 1186 485 1186 q 564 1179 539 1186 q 522 968 557 1076 q 659 951 610 951 q 740 956 708 951 q 628 572 718 744 q 388 203 539 399 q 460 167 411 192 q 536 128 508 142 q 656 90 611 90 q 724 118 700 90 q 789 74 761 107 q 724 -58 767 -4 q 624 -111 681 -111 q 515 -83 568 -111 q 384 2 463 -56 q 278 78 306 60 q 89 -24 188 -24 q -10 10 28 -24 q -49 109 -49 43 q 8 222 -49 175 q 153 269 64 269 q 274 244 204 269 q 441 510 369 368 q 531 761 513 651 l 449 782 q 320 650 394 701 q 163 599 246 599 q 25 653 79 599 q -29 799 -29 708 q 32 955 -29 890 q 210 1019 93 1019 q 444 985 294 1019 m 172 682 q 367 807 276 682 q 199 838 254 838 q 82 758 82 838 q 104 704 82 726 q 172 682 126 682 m 115 150 q 99 150 115 150 q 65 139 83 150 q 46 109 46 128 q 58 79 46 90 q 89 68 71 68 q 192 133 131 68 q 115 150 147 150 z "},"[":{"ha":476,"x_min":92,"x_max":504,"o":"m 247 -204 q 331 -247 247 -217 l 358 -258 l 350 -310 q 331 -311 340 -311 q 114 -292 235 -311 q 92 -236 94 -261 q 224 964 171 579 q 239 997 225 975 q 268 1019 253 1019 q 504 996 363 1019 l 501 944 q 371 906 375 926 q 338 682 364 874 q 302 403 311 490 q 281 215 293 317 q 264 56 269 114 q 247 -204 247 -117 z "},"\\":{"ha":508,"x_min":17,"x_max":553,"o":"m 17 993 q 131 1039 68 1029 q 553 -100 313 567 q 446 -153 500 -153 q 17 993 246 411 z "},"]":{"ha":521,"x_min":25,"x_max":438,"o":"m 282 913 q 199 956 282 925 l 171 967 l 179 1018 q 199 1019 189 1019 q 415 1000 294 1019 q 438 944 435 969 q 306 -256 358 129 q 290 -289 304 -267 q 261 -311 276 -311 q 25 -287 167 -311 l 28 -236 q 158 -197 154 -218 q 192 26 165 -165 q 227 305 218 218 q 248 493 236 392 q 265 653 260 594 q 282 913 282 825 z "},"^":{"ha":636,"x_min":29,"x_max":607,"o":"m 29 399 l 268 936 l 372 936 q 447 761 404 863 q 607 399 539 546 q 549 394 571 394 q 471 400 526 394 q 319 772 372 649 q 164 400 265 647 q 86 394 108 394 q 29 399 64 394 z "},"_":{"ha":778,"x_min":72,"x_max":707,"o":"m 72 0 q 76 90 72 58 l 707 90 q 703 0 707 22 l 72 0 z "},"`":{"ha":863,"x_min":218,"x_max":654,"o":"m 317 963 q 439 904 354 963 q 478 877 461 889 q 522 846 496 865 q 565 814 549 826 q 654 746 607 779 l 624 693 q 218 833 453 758 q 317 963 271 963 z "},"a":{"ha":667,"x_min":44,"x_max":683,"o":"m 456 575 q 471 611 458 578 q 646 572 536 611 q 590 331 611 457 q 569 152 569 206 q 581 99 569 99 q 642 125 589 99 l 658 133 l 683 85 q 651 57 671 74 q 575 12 631 40 q 475 -17 519 -17 q 375 61 389 -17 q 215 -17 286 -17 q 94 39 143 -17 q 44 214 44 94 q 121 508 44 400 q 306 615 197 615 q 456 575 383 615 m 297 101 q 372 128 331 101 q 438 515 382 324 q 367 533 396 533 q 281 435 317 533 q 246 219 246 338 q 297 101 246 101 z "},"b":{"ha":667,"x_min":39,"x_max":644,"o":"m 401 969 q 331 556 401 864 q 481 615 414 615 q 597 559 549 615 q 644 388 644 503 q 569 89 644 194 q 385 -17 493 -17 q 303 -7 344 -17 q 242 14 263 3 l 221 24 q 47 -7 132 -7 q 39 60 39 0 q 117 460 39 121 q 194 925 194 800 q 188 982 194 947 q 394 1019 296 1019 q 401 969 401 1000 m 389 497 q 310 472 363 497 q 240 86 246 203 q 319 68 282 68 q 408 165 372 68 q 443 380 443 263 q 389 497 443 497 z "},"c":{"ha":551,"x_min":36,"x_max":564,"o":"m 361 546 q 272 453 306 546 q 239 256 239 361 q 342 89 239 89 q 413 105 375 89 q 472 136 450 121 l 493 153 l 525 110 q 481 69 514 94 q 418 28 447 44 q 343 -3 389 11 q 253 -17 297 -17 q 90 54 144 -17 q 36 244 36 125 q 127 513 36 410 q 361 615 218 615 q 509 573 454 615 q 564 469 564 531 q 525 363 564 407 q 444 378 490 363 q 375 415 399 393 l 396 538 q 361 546 383 546 z "},"d":{"ha":697,"x_min":44,"x_max":714,"o":"m 700 85 q 492 -17 582 -17 q 389 72 403 -17 q 296 7 347 31 q 206 -17 244 -17 q 92 42 139 -17 q 44 222 44 100 q 122 510 44 406 q 298 615 200 615 q 463 571 396 615 q 506 925 506 796 l 499 983 q 703 1019 603 1019 q 714 965 714 996 q 653 553 714 864 q 592 132 592 243 q 607 99 592 99 q 660 125 615 99 l 674 133 l 700 85 m 365 533 q 281 438 317 533 q 246 248 246 342 q 259 128 246 154 q 299 101 272 101 q 389 139 344 101 q 451 508 393 194 q 365 533 404 533 z "},"e":{"ha":554,"x_min":36,"x_max":567,"o":"m 36 240 q 141 515 36 414 q 379 615 246 615 q 514 575 461 615 q 567 467 567 535 q 533 354 567 400 q 450 283 499 308 q 269 222 351 235 l 236 218 q 343 88 246 88 q 414 104 376 88 q 472 138 451 121 l 493 154 l 526 110 q 482 69 515 94 q 419 28 449 44 q 243 -17 339 -17 q 92 51 147 -17 q 36 240 36 119 m 235 286 q 347 346 306 299 q 389 468 389 393 q 344 543 389 543 q 263 453 292 543 q 235 286 235 364 z "},"f":{"ha":407,"x_min":17,"x_max":510,"o":"m 447 599 q 422 518 444 568 q 318 524 369 524 l 313 524 q 258 17 283 181 q 193 -212 233 -147 q 90 -199 143 -211 q 17 -175 36 -187 q 84 135 50 -72 q 128 517 118 342 q 42 507 89 514 q 38 544 38 525 q 43 599 38 563 l 132 599 q 144 782 135 719 q 222 956 161 893 q 378 1019 282 1019 q 474 992 439 1019 q 510 907 510 965 q 457 756 510 849 q 318 599 404 664 l 447 599 m 321 686 q 406 788 375 732 q 436 888 436 843 q 407 933 436 933 q 329 793 346 933 q 321 686 324 746 z "},"g":{"ha":640,"x_min":44,"x_max":633,"o":"m 399 -244 q 373 -262 399 -244 q 300 -295 347 -279 q 208 -311 253 -311 q 136 -286 164 -311 q 108 -215 108 -261 q 168 -126 108 -168 q 286 -69 228 -85 l 346 -56 l 367 56 q 212 -6 286 -6 q 91 51 138 -6 q 44 233 44 108 q 118 506 44 397 q 313 615 192 615 q 447 582 381 615 q 600 607 518 607 l 629 606 q 633 558 633 589 q 546 10 633 436 q 490 -144 531 -78 q 399 -244 450 -210 m 375 533 q 281 437 315 533 q 246 223 246 340 q 299 106 246 106 q 381 132 333 106 q 436 517 419 365 q 375 533 397 533 m 171 -211 q 202 -237 171 -237 q 271 -202 233 -237 q 331 -115 308 -167 q 228 -149 285 -121 q 171 -211 171 -178 z "},"h":{"ha":689,"x_min":39,"x_max":686,"o":"m 204 917 q 196 982 204 963 q 400 1019 304 1019 q 413 956 413 1007 q 335 533 413 864 q 532 615 447 615 q 612 582 585 615 q 639 494 639 549 q 607 315 639 439 q 575 144 575 190 q 586 99 575 99 q 644 124 597 99 l 661 132 l 686 83 q 653 56 674 72 q 576 11 632 39 q 474 -17 521 -17 q 400 13 428 -17 q 372 94 372 43 q 403 278 372 144 q 435 448 435 413 q 406 483 435 483 q 315 453 369 483 q 239 17 239 117 q 40 -6 181 -6 q 39 36 39 18 q 122 444 39 96 q 204 917 204 793 z "},"i":{"ha":378,"x_min":50,"x_max":375,"o":"m 329 529 q 329 500 329 529 q 292 328 329 471 q 254 142 254 186 q 267 99 254 99 q 331 125 275 99 l 347 133 l 371 85 q 338 57 358 74 q 260 12 317 40 q 154 -17 203 -17 q 78 13 106 -17 q 50 94 50 43 q 85 274 50 144 q 119 443 119 404 q 83 553 119 501 l 71 569 l 72 588 q 311 608 146 608 q 329 529 329 588 m 171 760 q 157 774 171 760 q 143 833 143 788 q 181 914 143 879 q 269 949 219 949 q 347 921 319 949 q 375 848 375 893 q 335 768 375 803 q 247 733 296 733 q 171 760 199 733 z "},"j":{"ha":356,"x_min":-217,"x_max":378,"o":"m 124 463 q 83 550 124 494 l 71 569 l 72 588 q 311 608 151 608 q 329 531 329 588 q 295 269 329 475 q 238 -26 261 64 q 190 -169 215 -117 q 112 -266 165 -221 q -2 -311 58 -311 q -114 -285 -62 -311 q -192 -233 -165 -258 l -217 -207 l -186 -162 q -85 -203 -118 -203 q 10 -129 -32 -203 q 88 163 51 -56 q 124 463 124 382 m 174 760 q 160 774 174 760 q 146 833 146 788 q 184 914 146 879 q 272 949 222 949 q 350 921 322 949 q 378 848 378 893 q 338 768 378 803 q 250 733 299 733 q 174 760 201 733 z "},"k":{"ha":706,"x_min":39,"x_max":713,"o":"m 199 917 q 190 982 199 963 q 394 1019 299 1019 q 407 956 407 1007 q 331 514 407 840 q 575 615 454 615 q 667 582 629 615 q 704 485 704 549 q 508 311 704 365 q 589 115 554 167 q 611 93 604 93 q 675 117 626 93 l 690 124 l 713 76 q 620 15 679 46 q 513 -17 561 -17 q 361 181 404 -17 q 338 339 342 265 q 470 390 426 360 q 514 466 514 419 q 467 513 514 513 q 308 418 419 513 q 239 17 239 125 q 40 -6 163 -6 q 39 36 39 18 q 119 444 39 96 q 199 917 199 793 z "},"l":{"ha":369,"x_min":39,"x_max":385,"o":"m 149 -17 q 125 -17 149 -17 q 70 15 101 -17 q 39 105 39 47 q 108 473 39 163 q 176 921 176 783 l 168 982 q 371 1019 276 1019 q 385 951 385 1000 q 315 522 385 840 q 244 151 244 203 q 257 99 244 99 l 354 133 l 379 85 q 265 15 332 47 q 149 -17 197 -17 z "},"m":{"ha":1019,"x_min":53,"x_max":1017,"o":"m 79 -4 l 53 -4 q 92 246 53 61 q 132 456 132 431 q 93 553 132 501 l 81 569 l 82 588 q 322 608 157 608 q 342 522 342 582 q 540 615 467 615 q 650 519 633 615 q 748 583 688 550 q 856 615 808 615 q 936 584 904 615 q 968 497 968 553 q 938 314 968 442 q 907 142 907 186 q 919 99 907 99 q 976 125 928 99 l 992 133 l 1017 85 q 919 16 981 49 q 810 -17 857 -17 q 706 101 706 -17 q 735 274 706 144 q 765 444 765 404 q 742 483 765 483 q 650 453 701 483 q 612 264 647 425 q 576 14 576 103 q 388 -4 536 -4 q 385 69 385 11 q 417 268 385 128 q 450 446 450 408 q 424 483 450 483 q 332 450 382 483 q 304 328 329 438 q 254 15 254 108 q 79 -4 206 -4 z "},"n":{"ha":706,"x_min":53,"x_max":703,"o":"m 79 -4 l 53 -4 q 92 246 53 61 q 132 456 132 431 q 93 553 132 501 l 81 569 l 82 588 q 322 608 157 608 q 342 522 340 585 q 546 615 463 615 q 626 581 596 615 q 656 494 656 546 q 624 314 656 442 q 592 142 592 186 q 603 99 592 99 q 661 125 611 99 l 678 133 l 703 85 q 669 57 690 74 q 592 12 649 40 q 492 -17 536 -17 q 390 99 390 -17 q 422 278 390 147 q 453 446 453 408 q 429 483 453 483 q 331 449 389 483 q 303 324 326 425 q 254 15 254 106 q 79 -4 206 -4 z "},"o":{"ha":568,"x_min":32,"x_max":701,"o":"m 236 -17 q 86 51 140 -17 q 32 239 32 118 q 115 504 32 393 q 343 615 197 615 l 393 613 q 446 625 417 625 q 556 418 556 625 q 671 433 613 421 l 693 439 l 701 385 q 578 350 656 365 l 550 344 q 443 91 524 199 q 236 -17 363 -17 m 311 103 q 416 178 369 103 q 481 336 463 253 q 332 447 332 336 q 350 531 332 492 l 357 544 q 343 547 351 547 q 331 544 335 547 q 265 440 296 522 q 235 253 235 358 q 311 103 235 103 z "},"p":{"ha":663,"x_min":-6,"x_max":640,"o":"m 1 -311 q -6 -237 -6 -294 q 49 69 -6 -181 q 103 453 103 318 q 90 509 103 479 q 64 556 78 539 l 51 571 l 53 589 q 283 610 118 610 q 303 528 299 581 q 481 615 410 615 q 597 556 553 615 q 640 381 640 496 q 567 81 640 179 q 381 -17 493 -17 q 283 0 322 -17 l 269 6 l 279 60 q 308 57 292 57 q 372 90 344 57 q 413 175 399 124 q 440 365 440 278 q 389 490 440 490 q 303 458 349 490 q 246 118 297 361 q 194 -274 194 -125 q 1 -311 119 -304 z "},"q":{"ha":651,"x_min":44,"x_max":631,"o":"m 331 -311 q 322 -242 322 -294 q 371 54 322 -189 q 210 -17 283 -17 q 90 42 136 -17 q 44 215 44 100 q 122 512 44 408 q 308 615 200 615 q 449 583 367 615 q 626 608 518 608 q 631 551 631 583 q 577 128 631 400 q 524 -274 524 -144 q 331 -311 449 -304 m 369 533 q 281 441 317 533 q 246 225 246 349 q 299 101 246 101 q 388 138 346 101 q 435 518 435 376 q 369 533 396 533 z "},"r":{"ha":506,"x_min":57,"x_max":578,"o":"m 69 -4 l 60 -4 q 57 47 57 7 q 94 260 57 86 q 132 458 132 433 q 93 553 132 501 l 81 569 l 82 588 q 322 608 157 608 q 339 507 339 572 q 403 574 354 532 q 503 615 451 615 q 578 485 578 615 q 559 463 571 476 q 512 426 547 450 q 443 397 476 403 q 419 435 442 397 q 386 472 397 472 q 325 431 351 460 q 261 58 261 143 q 263 15 261 28 q 69 -4 214 -4 z "},"s":{"ha":493,"x_min":4,"x_max":471,"o":"m 471 182 q 394 39 471 94 q 218 -17 317 -17 q 62 25 119 -17 q 4 99 4 67 q 53 162 4 118 q 135 215 101 206 q 249 53 204 164 q 300 101 300 57 q 188 283 300 165 q 75 469 75 400 q 138 577 75 539 q 288 615 200 615 q 421 584 376 615 q 465 499 465 553 q 381 351 465 446 q 406 326 390 342 q 446 265 421 310 q 471 182 471 221 m 338 400 q 396 499 396 450 q 329 547 396 547 q 276 534 297 547 q 256 504 256 521 q 317 418 256 474 l 338 400 z "},"t":{"ha":410,"x_min":54,"x_max":476,"o":"m 476 599 q 453 518 474 564 q 353 524 400 524 l 328 524 q 264 138 264 214 q 281 97 264 97 q 374 132 299 97 l 399 86 q 169 -17 275 -17 q 90 14 121 -17 q 58 95 58 44 q 70 210 58 146 q 103 366 82 274 q 133 515 124 458 q 57 507 82 511 q 54 552 54 524 q 58 599 54 581 l 146 599 q 157 740 157 674 l 156 783 l 156 788 q 360 825 264 825 q 365 756 365 797 q 342 599 365 714 l 476 599 z "},"u":{"ha":693,"x_min":53,"x_max":696,"o":"m 53 105 q 53 134 53 105 q 89 308 53 164 q 125 484 125 451 q 75 571 125 517 l 76 589 q 325 608 171 608 q 332 543 332 590 q 293 342 332 496 q 254 150 254 188 q 282 113 254 113 q 375 142 322 113 q 403 269 381 175 q 453 588 453 492 q 628 607 501 607 l 654 607 q 615 352 654 542 q 576 130 576 163 q 590 97 576 97 q 669 131 599 97 l 696 86 q 479 -17 572 -17 q 403 8 435 -17 q 368 74 372 33 q 164 -18 256 -18 q 84 14 115 -18 q 53 105 53 46 z "},"v":{"ha":547,"x_min":38,"x_max":571,"o":"m 177 615 q 207 615 177 615 q 267 590 238 615 q 297 488 297 565 q 272 317 297 446 q 247 161 247 189 q 269 106 247 106 q 385 184 322 106 q 451 315 449 263 l 357 421 q 386 529 363 481 q 431 597 410 578 l 450 615 q 540 583 510 615 q 571 508 571 551 q 517 276 571 399 q 372 69 463 154 q 189 -17 282 -17 q 99 19 131 -17 q 68 115 68 56 q 77 274 68 174 q 86 472 86 374 q 70 525 86 494 q 38 574 54 556 l 42 590 q 177 615 117 615 z "},"w":{"ha":867,"x_min":38,"x_max":890,"o":"m 72 114 l 88 476 q 38 574 88 524 l 40 590 q 59 595 50 593 q 80 600 68 597 q 107 606 92 603 q 139 611 122 608 q 212 615 178 615 q 270 588 246 615 q 294 499 294 560 q 276 327 294 439 q 257 160 257 215 q 283 106 257 106 q 378 160 326 106 q 396 301 379 182 q 413 475 413 421 q 404 568 413 529 q 596 608 511 608 q 614 527 614 596 q 590 337 614 458 q 567 160 567 215 q 589 106 567 106 q 704 184 642 106 q 771 315 767 263 l 676 421 q 706 529 682 481 q 750 597 729 578 l 769 615 q 860 583 829 615 q 890 508 890 551 q 836 276 890 399 q 690 69 782 154 q 504 -17 599 -17 q 424 10 457 -17 q 381 81 392 38 q 192 -17 283 -17 q 101 22 131 -17 q 72 114 72 60 z "},"x":{"ha":543,"x_min":-42,"x_max":569,"o":"m 475 94 q 531 119 483 94 l 544 126 l 569 78 q 540 51 558 67 q 470 10 522 36 q 372 -17 418 -17 q 297 8 325 -17 q 250 88 268 32 l 218 186 q 63 -15 114 74 q 15 -1 53 -15 q -42 22 -24 13 q 190 274 -1 93 q 113 478 142 419 q 46 557 107 489 l 50 574 l 135 592 q 265 606 208 603 q 312 518 294 582 q 339 421 329 454 q 474 610 442 533 q 550 581 513 604 l 563 574 q 365 333 514 482 q 393 246 381 281 q 475 94 446 94 z "},"y":{"ha":635,"x_min":47,"x_max":646,"o":"m 163 -6 q 47 122 47 -6 q 75 299 47 153 q 103 542 103 444 q 97 581 103 563 q 303 610 172 610 q 310 543 310 590 q 279 354 310 496 q 249 169 249 213 q 271 126 249 126 q 389 169 332 126 q 444 588 393 221 q 619 607 493 607 l 646 607 q 591 277 629 542 q 536 -58 553 13 q 491 -183 519 -129 q 422 -265 463 -237 q 339 -301 381 -292 q 231 -311 297 -311 q 106 -269 165 -311 q 47 -196 47 -226 q 97 -136 47 -176 q 179 -86 146 -96 q 283 -240 250 -157 q 347 -154 319 -240 q 385 99 375 -68 q 283 30 351 65 q 163 -6 215 -6 z "},"z":{"ha":540,"x_min":-14,"x_max":547,"o":"m 182 615 l 447 604 q 532 608 492 604 l 544 564 l 518 533 q 351 317 443 443 q 251 181 260 192 q 444 135 379 135 q 474 143 465 135 q 506 197 486 156 l 547 188 q 483 -12 538 31 q 418 -33 457 -33 q 294 15 379 -33 q 156 76 208 63 q 75 -3 97 -3 q 19 34 53 -3 q -14 92 -14 71 q 30 163 -14 113 q 121 214 74 214 q 136 213 131 214 q 339 461 249 322 q 172 453 219 460 q 81 422 125 447 q 69 523 69 471 q 74 597 69 575 q 182 615 92 615 z "},"{":{"ha":597,"x_min":113,"x_max":619,"o":"m 317 542 l 313 850 q 352 967 313 913 q 463 1021 392 1021 q 619 985 533 1021 l 613 928 q 504 908 522 928 q 474 805 486 889 q 450 594 461 721 q 435 439 439 467 q 361 351 426 379 q 411 270 411 321 q 382 51 411 219 q 353 -151 353 -117 q 357 -196 353 -186 q 392 -228 364 -215 q 444 -244 419 -240 l 469 -247 l 461 -304 q 368 -311 421 -311 q 185 -156 185 -311 q 235 67 185 -106 q 297 299 286 239 q 244 315 290 307 q 156 325 197 322 l 113 328 l 126 429 q 296 413 249 413 l 311 414 q 317 542 317 465 z "},"|":{"ha":369,"x_min":156,"x_max":276,"o":"m 276 1103 l 276 -200 q 156 -204 244 -204 l 156 1099 q 276 1103 204 1103 z "},"}":{"ha":601,"x_min":43,"x_max":550,"o":"m 346 168 l 350 -140 q 310 -257 350 -203 q 200 -311 271 -311 q 43 -275 129 -311 l 50 -218 q 158 -199 140 -218 q 189 -95 176 -179 q 213 116 201 -11 q 228 271 224 243 q 301 358 236 331 q 251 440 251 389 q 281 658 251 490 q 310 860 310 826 q 304 910 310 894 q 271 938 299 925 q 218 953 243 950 l 193 957 l 201 1014 q 294 1021 242 1021 q 478 865 478 1021 q 427 643 478 815 q 365 411 376 471 q 419 395 372 403 q 508 385 465 388 l 550 382 l 536 281 q 367 297 414 297 l 351 296 q 346 168 346 244 z "},"~":{"ha":743,"x_min":65,"x_max":701,"o":"m 522 326 q 382 344 486 326 q 231 363 278 363 q 172 361 185 363 q 108 314 135 354 l 65 324 q 122 451 76 400 q 231 501 167 501 q 403 485 296 501 q 552 468 510 468 q 617 476 594 468 q 658 513 639 485 l 701 504 q 649 375 688 424 q 522 326 610 326 z "},"":{"ha":278,"x_min":0,"x_max":0,"o":""},"":{"ha":378,"x_min":22,"x_max":375,"o":"m 274 615 q 298 615 274 615 q 349 586 322 615 q 375 508 375 557 q 339 424 375 460 q 253 389 303 389 q 178 417 204 389 q 151 494 151 446 q 188 578 151 542 q 274 615 225 615 m 22 -324 q 113 108 22 -186 q 138 194 119 132 q 167 289 157 256 q 236 304 204 304 q 283 299 268 304 q 233 -233 233 -3 l 242 -350 q 32 -387 124 -387 q 22 -324 22 -375 z "},"":{"ha":539,"x_min":25,"x_max":553,"o":"m 350 546 q 265 461 303 546 q 228 297 228 376 q 331 131 228 131 q 401 147 364 131 q 461 178 439 163 l 482 194 l 514 151 q 484 122 503 140 q 406 70 465 104 q 285 28 346 36 q 269 -131 269 -75 q 178 -117 206 -131 l 204 28 q 69 109 114 40 q 25 297 25 178 q 107 508 25 417 q 310 613 189 599 q 326 779 326 751 q 418 765 382 779 l 389 613 q 509 563 465 604 q 553 465 553 522 q 514 363 553 407 q 433 378 479 363 q 364 415 388 393 l 385 538 q 350 546 372 546 z "},"":{"ha":726,"x_min":-11,"x_max":761,"o":"m 600 599 q 576 518 597 564 q 421 524 524 524 l 383 524 q 278 208 342 344 q 319 197 283 207 q 366 185 354 188 q 409 175 378 182 q 461 165 440 168 q 557 157 521 157 q 610 174 593 157 l 651 251 l 696 238 q 667 67 696 147 q 615 -1 650 24 q 531 -26 579 -26 q 388 32 483 -26 q 236 107 293 90 q 151 24 199 57 q 86 -10 104 -10 q 31 51 72 -10 q -11 138 -11 111 q 33 183 -11 153 q 125 225 76 214 q 185 514 156 310 q 125 507 150 513 q 122 547 122 524 q 126 599 122 571 l 196 599 l 208 699 q 318 961 233 896 q 408 1006 361 994 q 533 1018 456 1018 q 686 974 611 1018 q 761 863 761 929 q 747 797 761 832 q 715 743 733 761 q 626 766 681 743 q 546 815 572 789 l 571 935 q 530 947 556 947 q 488 935 504 947 q 462 902 472 922 q 443 846 451 882 q 431 790 435 810 q 418 719 426 771 q 408 658 410 667 l 399 599 l 600 599 z "},"":{"ha":908,"x_min":65,"x_max":883,"o":"m 210 301 q 161 482 161 376 q 207 664 161 588 q 65 804 110 744 q 163 886 129 886 q 193 869 178 886 q 240 813 208 853 q 293 751 271 774 q 479 799 372 799 q 665 751 586 799 q 750 867 721 824 q 782 885 764 886 q 810 881 800 885 q 883 808 833 871 q 751 667 840 749 q 800 485 800 589 q 751 303 800 381 q 883 163 844 218 q 786 83 819 83 q 754 99 767 83 q 712 156 742 115 q 665 218 682 196 q 480 171 590 171 q 292 219 369 171 q 210 101 290 218 q 181 85 197 85 q 79 163 143 85 q 210 301 128 228 m 480 685 q 431 685 480 685 q 331 629 382 685 q 281 485 281 574 q 331 341 281 397 q 480 285 382 285 q 629 341 578 285 q 681 485 681 397 q 629 628 681 572 q 480 685 578 685 z "},"":{"ha":679,"x_min":69,"x_max":739,"o":"m 601 283 q 578 203 599 249 l 414 208 q 399 28 399 114 q 197 0 354 0 l 192 0 q 221 204 192 61 q 72 192 132 200 q 69 232 69 208 q 74 283 69 256 l 236 283 l 250 349 q 89 336 131 343 q 86 376 86 353 q 90 428 86 400 l 267 428 q 243 468 253 442 q 199 664 221 522 q 163 844 176 806 q 139 889 150 882 l 85 947 l 89 965 q 339 986 211 986 q 366 895 360 950 q 379 761 372 840 q 410 553 393 607 q 419 554 418 553 q 526 752 468 628 q 615 983 585 876 q 739 963 694 983 q 626 743 726 943 q 464 446 525 543 l 460 428 l 618 428 q 594 347 615 393 l 442 353 l 428 283 l 601 283 z "},"":{"ha":383,"x_min":156,"x_max":276,"o":"m 156 -204 l 156 401 l 276 401 l 276 -200 q 156 -204 244 -204 m 276 560 l 156 560 l 156 1099 q 276 1103 158 1099 l 276 560 z "},"":{"ha":665,"x_min":11,"x_max":653,"o":"m 644 381 q 443 163 644 238 q 525 -35 525 53 q 442 -181 525 -122 q 261 -239 360 -239 q 140 -215 201 -239 q 46 -165 79 -192 q 11 -125 13 -139 q 66 -51 22 -90 q 147 -1 110 -12 q 242 -158 203 -40 q 308 -140 279 -158 q 338 -82 338 -122 q 310 4 338 -42 q 242 94 282 50 q 161 186 201 139 q 65 400 65 299 q 267 611 65 547 q 185 810 185 721 q 267 959 185 899 q 447 1019 350 1019 q 599 977 544 1019 q 653 876 653 935 q 576 714 653 776 q 534 737 553 722 q 501 772 515 751 q 561 868 561 819 q 535 917 561 899 q 465 935 508 935 q 396 912 422 935 q 368 847 369 889 q 472 674 375 782 q 550 583 511 629 q 644 381 644 472 m 460 335 q 447 381 460 358 q 428 413 435 403 q 406 444 422 424 q 381 474 389 465 q 352 508 374 483 q 324 540 331 532 q 249 440 249 501 q 261 393 249 415 q 281 360 274 371 q 304 328 288 349 q 328 298 321 307 q 358 264 336 289 q 388 231 381 239 q 460 335 460 278 z "},"":{"ha":707,"x_min":125,"x_max":588,"o":"m 210 749 q 190 749 210 749 q 147 774 169 749 q 125 840 125 799 q 156 912 125 882 q 228 942 188 942 q 315 851 315 942 q 283 780 315 811 q 210 749 251 749 m 482 749 q 461 749 482 749 q 419 773 440 749 q 397 840 397 797 q 428 912 397 882 q 501 942 460 942 q 565 917 543 942 q 588 852 588 893 q 556 780 588 811 q 482 749 524 749 z "},"":{"ha":1101,"x_min":49,"x_max":1085,"o":"m 621 796 q 756 754 697 796 q 814 662 814 713 q 793 575 814 611 q 711 587 757 575 q 643 615 665 599 l 653 713 q 607 726 629 726 q 510 656 547 726 q 474 456 474 586 q 508 326 474 375 q 592 278 543 278 q 736 340 664 278 l 769 296 q 626 196 724 226 q 544 183 588 183 q 366 254 438 183 q 294 459 294 325 q 388 694 294 593 q 621 796 482 796 m 567 -17 q 442 -17 567 -17 q 183 124 318 -17 q 49 482 49 265 q 186 842 49 699 q 570 986 324 986 q 951 846 817 986 q 1085 485 1085 706 q 950 124 1085 265 q 567 -17 815 -17 m 569 896 q 469 896 569 896 q 257 778 368 896 q 146 483 146 660 q 254 190 146 306 q 567 74 363 74 q 879 190 771 74 q 988 486 988 306 q 879 781 988 667 q 569 896 771 896 z "},"":{"ha":494,"x_min":28,"x_max":471,"o":"m 282 494 q 219 446 260 467 q 138 425 179 425 q 63 466 97 425 q 28 600 28 507 q 97 825 28 733 q 278 917 165 917 q 460 878 321 917 q 412 703 433 811 q 390 556 390 596 q 406 515 390 515 l 456 526 l 471 488 q 339 424 394 424 q 282 494 289 424 m 192 522 q 276 569 232 522 q 335 833 310 758 q 278 843 317 843 q 208 803 239 843 q 147 601 147 722 q 192 522 147 522 z "},"":{"ha":686,"x_min":65,"x_max":657,"o":"m 325 683 l 385 636 q 229 418 258 478 q 340 203 253 346 l 282 154 q 149 279 233 188 q 65 411 65 371 q 325 683 69 461 m 597 683 l 657 636 q 501 418 531 478 q 613 203 525 346 l 554 154 q 422 279 506 188 q 338 411 338 371 q 597 683 342 461 z "},"":{"ha":699,"x_min":68,"x_max":624,"o":"m 624 539 l 624 235 q 497 217 588 217 l 497 419 l 68 419 q 76 539 68 508 l 624 539 z "},"":{"ha":719,"x_min":106,"x_max":633,"o":"m 106 221 q 119 346 106 307 l 633 346 q 625 221 633 253 l 106 221 z "},"":{"ha":1106,"x_min":49,"x_max":1085,"o":"m 567 -17 q 442 -17 567 -17 q 183 124 318 -17 q 49 485 49 265 q 183 846 49 706 q 567 986 317 986 q 951 846 817 986 q 1085 485 1085 706 q 950 124 1085 265 q 567 -17 815 -17 m 567 896 q 465 896 567 896 q 254 781 363 896 q 146 486 146 667 q 254 190 146 306 q 567 74 363 74 q 879 190 771 74 q 988 486 988 306 q 879 781 988 667 q 567 896 771 896 m 322 207 q 301 208 307 207 q 349 443 307 258 q 392 676 392 628 q 358 729 392 694 l 349 740 l 354 763 q 626 790 486 790 q 754 760 707 790 q 801 667 801 729 q 671 492 801 538 q 732 358 675 476 q 788 296 761 296 l 835 307 l 853 269 q 702 207 775 207 q 601 277 629 207 q 543 465 574 347 q 508 464 532 464 q 464 225 467 271 q 322 207 428 207 m 547 532 q 621 570 596 532 q 646 672 646 608 q 601 735 646 735 l 564 729 q 522 532 544 632 l 547 532 z "},"":{"ha":651,"x_min":188,"x_max":654,"o":"m 192 800 q 188 850 188 821 q 193 915 188 879 l 654 915 l 642 804 q 410 810 553 810 q 192 800 268 810 z "},"":{"ha":324,"x_min":56,"x_max":417,"o":"m 246 992 q 288 992 246 992 q 373 959 329 992 q 417 858 417 926 q 365 728 417 789 q 217 668 314 668 q 101 703 147 668 q 56 812 56 738 q 109 939 56 886 q 246 992 163 992 m 222 736 q 286 774 268 736 q 304 860 304 811 q 250 924 304 924 q 186 888 206 924 q 167 800 167 851 q 222 736 167 736 z "},"":{"ha":757,"x_min":110,"x_max":636,"o":"m 431 428 l 431 231 q 315 218 403 218 l 303 218 l 303 428 l 110 428 q 115 553 110 513 l 303 553 l 303 744 q 429 756 347 756 l 429 553 l 635 553 q 631 428 635 439 l 431 428 m 110 17 q 125 142 110 108 l 636 142 q 631 17 636 44 l 110 17 z "},"":{"ha":504,"x_min":63,"x_max":506,"o":"m 471 513 q 419 488 449 488 q 348 502 389 488 q 267 535 307 517 q 217 556 226 553 q 156 516 186 531 q 114 501 125 501 q 83 528 103 501 q 63 569 63 556 q 93 608 63 582 q 156 635 124 635 q 189 632 164 635 q 288 736 242 667 q 335 871 335 806 q 285 936 335 936 q 233 917 261 936 q 186 868 206 899 l 139 894 q 344 1019 221 1019 q 454 986 415 1019 q 493 886 493 953 q 428 744 493 819 q 285 617 364 669 q 412 594 379 594 q 454 603 444 594 l 476 638 l 506 629 q 471 513 506 551 z "},"":{"ha":443,"x_min":64,"x_max":464,"o":"m 118 922 q 193 991 144 963 q 310 1019 242 1019 q 418 990 378 1019 q 458 915 458 960 q 422 837 458 871 q 326 788 386 803 q 464 657 464 771 q 411 535 464 588 q 269 483 358 483 q 122 513 181 483 q 64 593 64 542 q 83 651 64 628 q 111 653 92 653 q 189 619 158 653 l 181 553 q 211 543 192 543 q 278 576 251 543 q 306 661 306 610 q 277 729 306 713 q 189 746 249 746 l 186 792 q 226 797 204 792 q 307 886 307 815 q 254 944 307 944 q 157 892 201 944 l 118 922 z "},"":{"ha":843,"x_min":206,"x_max":621,"o":"m 621 856 q 571 793 621 817 q 231 699 503 761 l 206 754 q 442 893 336 822 q 572 979 547 964 q 603 918 586 960 q 621 856 621 876 z "},"":{"ha":699,"x_min":1,"x_max":701,"o":"m 97 304 q 131 475 131 433 q 81 571 131 517 l 82 589 q 333 610 158 610 q 338 575 338 600 q 299 340 338 492 q 260 150 260 188 q 288 113 260 113 q 381 142 328 113 q 408 269 386 175 q 458 588 458 492 q 633 607 507 607 l 660 607 q 621 352 660 542 q 582 130 582 163 q 596 97 582 97 q 675 131 604 97 l 701 86 q 485 -17 578 -17 q 409 8 440 -17 q 374 74 378 33 q 179 -18 261 -14 q 174 -140 174 -74 q 194 -275 174 -206 q 47 -307 135 -299 l 6 -311 q 1 -239 1 -275 q 97 304 1 -78 z "},"":{"ha":807,"x_min":79,"x_max":808,"o":"m 496 969 l 800 971 q 808 860 808 933 q 781 662 808 788 q 721 422 754 536 q 656 145 688 308 q 615 -167 624 -18 q 496 -194 564 -194 l 482 -194 q 578 323 485 -81 q 681 874 672 726 q 588 863 606 874 q 477 314 579 711 q 365 -201 375 -83 q 246 -229 314 -229 l 232 -229 q 314 224 238 -124 l 301 224 q 139 297 199 224 q 79 506 79 371 q 192 838 79 706 q 496 969 304 969 z "},"":{"ha":401,"x_min":103,"x_max":310,"o":"m 201 356 q 179 356 201 356 q 130 384 157 356 q 103 456 103 413 q 133 531 103 500 q 210 563 164 563 q 283 535 256 563 q 310 463 310 507 q 278 388 310 419 q 201 356 246 356 z "},"":{"ha":688,"x_min":185,"x_max":467,"o":"m 314 -131 q 347 -164 314 -164 q 426 -142 381 -164 l 442 -133 l 467 -181 q 440 -205 457 -190 q 374 -244 424 -219 q 281 -269 324 -269 q 211 -244 238 -269 q 185 -176 185 -218 q 226 -81 185 -133 q 310 0 267 -28 l 399 -1 q 338 -66 363 -29 q 314 -131 314 -103 z "},"":{"ha":385,"x_min":101,"x_max":385,"o":"m 376 1018 q 385 971 385 1004 q 342 751 385 938 q 296 507 299 565 q 154 492 261 492 l 144 492 q 189 710 147 526 q 231 924 231 894 l 228 940 q 181 909 208 931 q 140 878 154 888 l 101 928 l 208 1007 q 376 1018 263 1015 z "},"":{"ha":442,"x_min":65,"x_max":496,"o":"m 325 917 q 450 871 404 917 q 496 747 496 825 q 469 599 496 668 q 380 478 443 531 q 229 425 317 425 q 65 610 65 425 q 138 828 65 739 q 325 917 211 917 m 317 846 q 288 846 317 846 q 224 766 260 846 q 188 591 188 686 q 245 496 188 496 q 338 580 303 496 q 374 755 374 664 q 317 846 374 846 z "},"":{"ha":728,"x_min":72,"x_max":664,"o":"m 404 154 l 344 201 q 500 419 471 360 q 389 635 476 492 l 447 683 q 580 558 496 650 q 664 426 664 467 q 404 154 660 376 m 132 154 l 72 201 q 228 419 199 360 q 117 635 204 492 l 175 683 q 308 558 224 650 q 392 426 392 467 q 132 154 388 376 z "},"":{"ha":1056,"x_min":111,"x_max":1018,"o":"m 860 974 q 579 485 760 746 q 443 256 514 390 q 326 -15 372 122 q 267 0 303 -14 q 200 38 228 14 q 314 288 242 157 q 452 519 386 419 q 594 756 518 618 q 719 1019 671 893 q 860 974 824 999 m 936 94 q 894 99 917 94 q 885 15 885 38 q 753 0 853 0 l 747 0 q 756 58 747 19 q 769 118 765 97 q 678 124 728 124 q 567 106 629 124 q 544 122 558 106 q 529 146 529 138 q 540 169 529 154 q 690 371 682 357 q 789 514 722 422 q 946 528 846 525 q 956 472 956 510 q 908 197 956 433 q 945 196 924 196 q 974 207 967 196 l 985 225 l 1018 218 q 936 94 1001 94 m 783 211 q 831 453 831 421 q 675 219 753 351 q 783 211 682 219 m 386 1018 q 394 971 394 1004 q 351 751 394 938 q 306 507 308 565 q 164 492 271 492 l 154 492 q 199 710 157 526 q 240 924 240 894 l 238 940 q 191 909 218 931 q 150 878 164 888 l 111 928 l 218 1007 q 386 1018 272 1015 z "},"":{"ha":935,"x_min":44,"x_max":931,"o":"m 793 974 q 513 485 693 746 q 376 256 447 390 q 260 -15 306 122 q 200 0 236 -14 q 133 38 161 14 q 247 288 175 157 q 385 519 319 419 q 528 756 451 618 q 653 1019 604 893 q 793 974 757 999 m 896 -6 q 844 -31 874 -31 q 773 -16 814 -31 q 692 17 732 -1 q 642 38 651 35 q 581 -2 611 13 q 539 -17 550 -17 q 508 10 528 -17 q 488 51 488 38 q 518 90 488 64 q 581 117 549 117 q 614 114 589 117 q 713 218 667 149 q 760 353 760 288 q 710 418 760 418 q 658 399 686 418 q 611 350 631 381 l 564 376 q 769 501 646 501 q 879 468 840 501 q 918 368 918 435 q 853 226 918 301 q 710 99 789 151 q 837 76 804 76 q 879 85 869 76 l 901 119 l 931 111 q 896 -6 931 33 m 319 1018 q 328 971 328 1004 q 285 751 328 938 q 239 507 242 565 q 97 492 204 492 l 88 492 q 132 710 90 526 q 174 924 174 894 l 171 940 q 124 909 151 931 q 83 878 97 888 l 44 928 l 151 1007 q 319 1018 206 1015 z "},"":{"ha":1143,"x_min":86,"x_max":1138,"o":"m 975 974 q 694 485 875 746 q 558 256 629 390 q 442 -15 488 122 q 381 0 418 -14 q 315 38 343 14 q 429 288 357 157 q 567 519 501 419 q 710 756 633 618 q 835 1019 786 893 q 975 974 939 999 m 1056 94 q 1014 99 1036 94 q 1004 15 1004 38 q 872 0 972 0 l 867 0 q 876 58 867 19 q 889 118 885 97 q 799 124 847 124 q 686 106 750 124 q 663 122 678 106 q 649 146 649 138 q 660 169 649 154 q 810 371 801 357 q 908 514 842 422 q 1065 528 965 525 q 1075 474 1075 514 q 1028 197 1075 433 q 1065 196 1043 196 q 1093 207 1086 196 l 1104 225 l 1138 218 q 1056 94 1121 94 m 903 211 q 950 453 950 421 q 794 219 872 351 q 903 211 801 219 m 140 922 q 215 991 167 963 q 332 1019 264 1019 q 440 990 400 1019 q 481 915 481 960 q 444 837 481 871 q 349 788 408 803 q 486 657 486 771 q 433 535 486 588 q 292 483 381 483 q 144 513 203 483 q 86 593 86 542 q 106 651 86 628 q 133 653 114 653 q 211 619 181 653 l 203 553 q 233 543 214 543 q 301 576 274 543 q 328 661 328 610 q 299 729 328 713 q 211 746 271 746 l 208 792 q 249 797 226 792 q 329 886 329 815 q 276 944 329 944 q 179 892 224 944 l 140 922 z "},"":{"ha":589,"x_min":103,"x_max":565,"o":"m 103 -154 q 135 -45 103 -101 q 206 50 167 11 q 307 203 307 157 q 284 230 307 217 q 235 244 261 243 q 260 313 247 294 q 424 270 360 313 q 489 150 489 228 q 432 23 489 103 q 318 -135 375 -57 q 261 -261 261 -212 q 310 -318 261 -310 q 426 -151 346 -224 q 513 -207 460 -161 q 565 -272 565 -253 q 497 -348 565 -308 q 339 -387 429 -387 q 176 -331 249 -387 q 103 -154 103 -274 m 499 588 q 513 575 499 588 q 526 515 526 561 q 488 435 526 469 q 400 400 450 400 q 322 428 350 400 q 294 501 294 456 q 334 581 294 546 q 422 615 374 615 q 499 588 471 615 z "},"":{"ha":1063,"x_min":-40,"x_max":1215,"o":"m 153 -67 q 15 -12 69 -67 q -40 116 -40 43 q -6 252 -40 189 q 94 369 29 315 q 263 459 158 424 q 493 499 367 494 q 624 906 567 681 q 625 927 625 914 q 611 950 625 940 l 611 964 q 829 986 731 986 l 913 981 q 953 803 949 917 q 958 411 957 690 q 1215 246 1108 346 q 1194 210 1210 228 q 1164 185 1178 193 l 1150 176 q 960 314 1068 257 q 975 181 963 235 q 1021 92 994 92 q 1057 99 1036 92 l 1078 44 q 894 -17 982 -17 q 750 201 750 -17 l 750 383 q 574 413 653 407 q 153 -67 393 -67 m 458 414 q 197 304 301 401 q 93 122 93 207 q 158 38 93 38 q 458 414 292 38 m 578 1271 q 938 1088 633 1271 l 914 1022 q 489 1138 782 1061 q 578 1271 525 1271 m 735 875 q 724 876 732 876 q 713 875 715 876 q 604 496 700 769 q 750 476 672 492 q 735 875 750 818 z "},"":{"ha":1063,"x_min":-40,"x_max":1215,"o":"m 153 -67 q 15 -12 69 -67 q -40 116 -40 43 q -6 252 -40 189 q 94 369 29 315 q 263 459 158 424 q 493 499 367 494 q 624 906 567 681 q 625 927 625 914 q 611 950 625 940 l 611 964 q 829 986 731 986 l 913 981 q 953 803 949 917 q 958 411 957 690 q 1215 246 1108 346 q 1194 210 1210 228 q 1164 185 1178 193 l 1150 176 q 960 314 1068 257 q 975 181 963 235 q 1021 92 994 92 q 1057 99 1036 92 l 1078 44 q 894 -17 982 -17 q 750 201 750 -17 l 750 383 q 574 413 653 407 q 153 -67 393 -67 m 458 414 q 197 304 301 401 q 93 122 93 207 q 158 38 93 38 q 458 414 292 38 m 990 1175 q 939 1114 990 1136 q 575 1042 813 1078 l 546 1106 q 939 1293 838 1238 q 972 1230 954 1271 q 990 1175 990 1189 m 735 875 q 724 876 732 876 q 713 875 715 876 q 604 496 700 769 q 750 476 672 492 q 735 875 750 818 z "},"":{"ha":1063,"x_min":-40,"x_max":1215,"o":"m 153 -67 q 15 -12 69 -67 q -40 116 -40 43 q -6 252 -40 189 q 94 369 29 315 q 263 459 158 424 q 493 499 367 494 q 624 906 567 681 q 625 927 625 914 q 611 950 625 940 l 611 964 q 829 986 731 986 l 913 981 q 953 803 949 917 q 958 411 957 690 q 1215 246 1108 346 q 1194 210 1210 228 q 1164 185 1178 193 l 1150 176 q 960 314 1068 257 q 975 181 963 235 q 1021 92 994 92 q 1057 99 1036 92 l 1078 44 q 894 -17 982 -17 q 750 201 750 -17 l 750 383 q 574 413 653 407 q 153 -67 393 -67 m 458 414 q 197 304 301 401 q 93 122 93 207 q 158 38 93 38 q 458 414 292 38 m 468 1078 q 664 1207 539 1138 q 826 1276 789 1276 q 924 1205 863 1276 q 1022 1076 985 1133 l 975 1032 q 782 1117 826 1107 q 615 1067 711 1104 q 506 1026 518 1031 l 468 1078 m 735 875 q 724 876 732 876 q 713 875 715 876 q 604 496 700 769 q 750 476 672 492 q 735 875 750 818 z "},"":{"ha":1063,"x_min":-40,"x_max":1215,"o":"m 153 -67 q 15 -12 69 -67 q -40 116 -40 43 q -6 252 -40 189 q 94 369 29 315 q 263 459 158 424 q 493 499 367 494 q 624 906 567 681 q 625 927 625 914 q 611 950 625 940 l 611 964 q 829 986 731 986 l 913 981 q 953 803 949 917 q 958 411 957 690 q 1215 246 1108 346 q 1194 210 1210 228 q 1164 185 1178 193 l 1150 176 q 960 314 1068 257 q 975 181 963 235 q 1021 92 994 92 q 1057 99 1036 92 l 1078 44 q 894 -17 982 -17 q 750 201 750 -17 l 750 383 q 574 413 653 407 q 153 -67 393 -67 m 500 1063 q 642 1251 519 1251 q 787 1226 689 1251 q 916 1201 885 1201 q 960 1203 947 1201 q 1010 1247 988 1208 l 1054 1239 q 1031 1138 1049 1182 q 911 1060 1003 1060 q 785 1084 879 1060 q 648 1108 692 1108 q 585 1098 604 1108 q 546 1053 565 1088 l 500 1063 m 458 414 q 197 304 301 401 q 93 122 93 207 q 158 38 93 38 q 458 414 292 38 m 735 875 q 724 876 732 876 q 713 875 715 876 q 604 496 700 769 q 750 476 672 492 q 735 875 750 818 z "},"":{"ha":1063,"x_min":-40,"x_max":1215,"o":"m 153 -67 q 15 -12 69 -67 q -40 116 -40 43 q -6 252 -40 189 q 94 369 29 315 q 263 459 158 424 q 493 499 367 494 q 624 906 567 681 q 625 927 625 914 q 611 950 625 940 l 611 964 q 829 986 731 986 l 913 981 q 953 803 949 917 q 958 411 957 690 q 1215 246 1108 346 q 1194 210 1210 228 q 1164 185 1178 193 l 1150 176 q 960 314 1068 257 q 975 181 963 235 q 1021 92 994 92 q 1057 99 1036 92 l 1078 44 q 894 -17 982 -17 q 750 201 750 -17 l 750 383 q 574 413 653 407 q 153 -67 393 -67 m 458 414 q 197 304 301 401 q 93 122 93 207 q 158 38 93 38 q 458 414 292 38 m 735 875 q 724 876 732 876 q 713 875 715 876 q 604 496 700 769 q 750 476 672 492 q 735 875 750 818 m 893 1063 q 872 1063 893 1063 q 828 1086 850 1063 q 806 1151 806 1110 q 837 1220 806 1192 q 911 1249 868 1249 q 1003 1161 1003 1249 q 969 1092 1003 1122 q 893 1063 936 1063 m 608 1063 q 587 1063 608 1063 q 542 1086 565 1063 q 519 1151 519 1110 q 551 1220 519 1192 q 626 1249 583 1249 q 717 1161 717 1249 q 684 1092 717 1122 q 608 1063 651 1063 z "},"":{"ha":1063,"x_min":-40,"x_max":1215,"o":"m 153 -67 q 15 -12 69 -67 q -40 116 -40 43 q -6 252 -40 189 q 94 369 29 315 q 263 459 158 424 q 493 499 367 494 q 624 906 567 681 q 625 927 625 914 q 611 950 625 940 l 611 964 q 829 986 731 986 l 913 981 q 953 803 949 917 q 958 411 957 690 q 1215 246 1108 346 q 1194 210 1210 228 q 1164 185 1178 193 l 1150 176 q 960 314 1068 257 q 975 181 963 235 q 1021 92 994 92 q 1057 99 1036 92 l 1078 44 q 894 -17 982 -17 q 750 201 750 -17 l 750 383 q 574 413 653 407 q 153 -67 393 -67 m 458 414 q 197 304 301 401 q 93 122 93 207 q 158 38 93 38 q 458 414 292 38 m 786 1029 q 751 1029 786 1029 q 676 1069 715 1029 q 636 1167 636 1108 q 676 1265 636 1226 q 786 1303 715 1303 q 897 1265 857 1303 q 936 1167 936 1226 q 897 1069 936 1108 q 786 1029 857 1029 m 735 875 q 724 876 732 876 q 713 875 715 876 q 604 496 700 769 q 750 476 672 492 q 735 875 750 818 m 731 1215 q 721 1205 731 1215 q 711 1167 711 1196 q 731 1119 711 1138 q 786 1100 751 1100 q 839 1119 821 1100 q 857 1167 857 1138 q 839 1215 857 1196 q 786 1233 821 1233 q 731 1215 751 1233 z "},"":{"ha":1344,"x_min":-40,"x_max":1344,"o":"m 925 471 l 926 354 q 952 135 928 204 q 1050 67 976 67 q 1172 103 1106 67 q 1290 185 1238 139 l 1344 136 q 1160 -10 1271 47 q 940 -67 1050 -67 q 772 4 828 -67 q 714 203 725 65 q 708 343 708 261 l 708 463 q 543 439 596 453 q 117 -67 356 -67 q 3 -24 46 -67 q -40 95 -40 18 q 10 248 -40 172 q 139 378 61 324 q 463 525 303 493 q 582 906 528 690 q 583 927 583 914 q 569 950 583 940 l 569 964 q 835 985 678 985 l 1125 981 q 1281 986 1213 981 q 1285 922 1285 953 q 1208 856 1285 856 q 1092 867 1181 856 q 973 879 1003 879 q 921 876 943 879 q 924 560 921 846 q 1268 528 1114 557 q 1264 478 1274 506 q 1242 431 1254 450 q 925 471 1126 468 m 132 38 q 273 147 189 38 q 424 418 357 257 q 190 276 288 374 q 90 86 92 179 q 132 38 90 40 m 704 875 l 688 876 l 671 875 q 578 538 660 783 q 711 553 622 544 l 713 718 q 704 875 713 819 z "},"":{"ha":757,"x_min":68,"x_max":993,"o":"m 356 -131 q 389 -164 356 -164 q 468 -142 422 -164 l 483 -133 l 508 -181 q 482 -205 499 -190 q 415 -244 465 -219 q 322 -269 365 -269 q 253 -244 279 -269 q 226 -178 226 -218 q 259 -92 226 -139 q 332 -14 292 -44 q 140 104 211 3 q 68 369 68 206 q 127 672 68 532 q 296 899 186 811 q 539 986 406 986 q 628 971 589 986 q 835 1038 728 1038 q 928 1023 885 1038 q 993 988 972 1008 q 957 901 982 940 q 825 950 892 950 q 703 924 758 950 q 768 727 768 854 q 701 496 768 600 q 535 392 635 392 q 438 442 475 392 q 401 567 401 492 q 536 893 401 747 q 358 749 426 889 q 290 413 290 610 q 457 125 290 125 q 700 267 571 125 l 749 226 q 734 203 743 218 q 694 151 725 189 q 628 84 663 114 q 538 25 593 54 q 426 -12 483 -4 q 356 -131 356 -74 m 672 713 q 621 868 672 826 q 523 736 560 814 q 486 575 486 658 q 502 504 486 532 q 543 476 518 476 q 635 553 597 476 q 672 713 672 629 z "},"":{"ha":765,"x_min":72,"x_max":983,"o":"m 803 960 q 696 936 747 960 q 754 818 754 889 q 717 693 754 747 q 623 639 679 639 q 533 674 567 639 q 499 772 499 710 q 540 894 499 835 q 429 840 475 890 q 383 706 383 789 q 417 558 383 622 q 513 568 464 568 q 669 474 669 568 q 638 402 669 433 q 534 371 607 371 q 375 422 461 371 q 294 253 294 346 q 333 151 294 192 q 439 111 372 111 q 578 156 506 111 q 706 263 650 200 l 756 218 q 656 106 719 165 q 369 -17 526 -17 q 172 39 263 -17 q 100 119 128 68 q 72 238 72 171 q 269 514 72 421 q 200 708 200 601 q 297 913 200 840 q 525 986 394 986 q 621 974 578 986 q 825 1038 714 1038 q 920 1024 876 1038 q 983 990 964 1010 q 953 914 981 944 l 943 904 q 803 960 894 960 m 325 1271 q 685 1088 381 1271 l 661 1022 q 236 1138 529 1061 q 325 1271 272 1271 m 672 794 q 619 882 672 854 q 578 776 578 838 q 621 715 578 715 q 658 738 643 715 q 672 794 672 761 m 594 469 q 578 492 594 483 q 533 501 563 501 q 465 485 503 501 q 549 444 504 444 q 594 469 594 444 z "},"":{"ha":765,"x_min":72,"x_max":983,"o":"m 803 960 q 696 936 747 960 q 754 818 754 889 q 717 693 754 747 q 623 639 679 639 q 533 674 567 639 q 499 772 499 710 q 540 894 499 835 q 429 840 475 890 q 383 706 383 789 q 417 558 383 622 q 513 568 464 568 q 669 474 669 568 q 638 402 669 433 q 534 371 607 371 q 375 422 461 371 q 294 253 294 346 q 333 151 294 192 q 439 111 372 111 q 578 156 506 111 q 706 263 650 200 l 756 218 q 656 106 719 165 q 369 -17 526 -17 q 172 39 263 -17 q 100 119 128 68 q 72 238 72 171 q 269 514 72 421 q 200 708 200 601 q 297 913 200 840 q 525 986 394 986 q 621 974 578 986 q 825 1038 714 1038 q 920 1024 876 1038 q 983 990 964 1010 q 953 914 981 944 l 943 904 q 803 960 894 960 m 758 1175 q 707 1114 758 1136 q 343 1042 581 1078 l 314 1106 q 707 1293 606 1238 q 740 1230 722 1271 q 758 1175 758 1189 m 672 794 q 619 882 672 854 q 578 776 578 838 q 621 715 578 715 q 658 738 643 715 q 672 794 672 761 m 594 469 q 578 492 594 483 q 533 501 563 501 q 465 485 503 501 q 549 444 504 444 q 594 469 594 444 z "},"":{"ha":765,"x_min":72,"x_max":983,"o":"m 803 960 q 696 936 747 960 q 754 818 754 889 q 717 693 754 747 q 623 639 679 639 q 533 674 567 639 q 499 772 499 710 q 540 894 499 835 q 429 840 475 890 q 383 706 383 789 q 417 558 383 622 q 513 568 464 568 q 669 474 669 568 q 638 402 669 433 q 534 371 607 371 q 375 422 461 371 q 294 253 294 346 q 333 151 294 192 q 439 111 372 111 q 578 156 506 111 q 706 263 650 200 l 756 218 q 656 106 719 165 q 369 -17 526 -17 q 172 39 263 -17 q 100 119 128 68 q 72 238 72 171 q 269 514 72 421 q 200 708 200 601 q 297 913 200 840 q 525 986 394 986 q 621 974 578 986 q 825 1038 714 1038 q 920 1024 876 1038 q 983 990 964 1010 q 953 914 981 944 l 943 904 q 803 960 894 960 m 222 1083 q 417 1209 293 1142 q 577 1276 540 1276 q 679 1208 614 1276 q 775 1092 744 1140 l 738 1056 q 546 1131 624 1113 q 260 1032 482 1119 l 222 1083 m 672 794 q 619 882 672 854 q 578 776 578 838 q 621 715 578 715 q 658 738 643 715 q 672 794 672 761 m 594 469 q 578 492 594 483 q 533 501 563 501 q 465 485 503 501 q 549 444 504 444 q 594 469 594 444 z "},"":{"ha":765,"x_min":72,"x_max":983,"o":"m 803 960 q 696 936 747 960 q 754 818 754 889 q 717 693 754 747 q 623 639 679 639 q 533 674 567 639 q 499 772 499 710 q 540 894 499 835 q 429 840 475 890 q 383 706 383 789 q 417 558 383 622 q 513 568 464 568 q 669 474 669 568 q 638 402 669 433 q 534 371 607 371 q 375 422 461 371 q 294 253 294 346 q 333 151 294 192 q 439 111 372 111 q 578 156 506 111 q 706 263 650 200 l 756 218 q 656 106 719 165 q 369 -17 526 -17 q 172 39 263 -17 q 100 119 128 68 q 72 238 72 171 q 269 514 72 421 q 200 708 200 601 q 297 913 200 840 q 525 986 394 986 q 621 974 578 986 q 825 1038 714 1038 q 920 1024 876 1038 q 983 990 964 1010 q 953 914 981 944 l 943 904 q 803 960 894 960 m 650 1063 q 628 1063 650 1063 q 585 1086 607 1063 q 563 1151 563 1110 q 594 1220 563 1192 q 668 1249 625 1249 q 760 1161 760 1249 q 726 1092 760 1122 q 650 1063 693 1063 m 365 1063 q 344 1063 365 1063 q 299 1086 322 1063 q 276 1151 276 1110 q 308 1220 276 1192 q 383 1249 340 1249 q 474 1161 474 1249 q 441 1092 474 1122 q 365 1063 408 1063 m 672 794 q 619 882 672 854 q 578 776 578 838 q 621 715 578 715 q 658 738 643 715 q 672 794 672 761 m 594 469 q 578 492 594 483 q 533 501 563 501 q 465 485 503 501 q 549 444 504 444 q 594 469 594 444 z "},"":{"ha":553,"x_min":10,"x_max":600,"o":"m 379 969 q 568 696 568 969 q 507 317 568 511 q 431 133 475 215 q 322 -2 388 50 q 178 -54 256 -54 q 56 -5 101 -54 q 10 122 10 44 q 101 328 10 233 q 332 486 192 422 q 351 687 351 593 q 333 815 351 781 q 281 850 315 850 q 200 832 247 850 q 110 783 153 814 l 72 839 q 216 930 131 890 q 379 969 301 969 m 318 378 q 174 277 233 342 q 114 147 114 213 q 165 81 114 81 q 251 153 210 82 q 318 378 292 225 m 240 1271 q 600 1088 296 1271 l 576 1022 q 151 1138 444 1061 q 240 1271 188 1271 z "},"":{"ha":553,"x_min":10,"x_max":592,"o":"m 379 969 q 568 696 568 969 q 507 317 568 511 q 431 133 475 215 q 322 -2 388 50 q 178 -54 256 -54 q 56 -5 101 -54 q 10 122 10 44 q 101 328 10 233 q 332 486 192 422 q 351 687 351 593 q 333 815 351 781 q 281 850 315 850 q 200 832 247 850 q 110 783 153 814 l 72 839 q 216 930 131 890 q 379 969 301 969 m 318 378 q 174 277 233 342 q 114 147 114 213 q 165 81 114 81 q 251 153 210 82 q 318 378 292 225 m 592 1175 q 540 1114 592 1136 q 176 1042 414 1078 l 147 1106 q 540 1293 439 1238 q 574 1230 556 1271 q 592 1175 592 1189 z "},"":{"ha":553,"x_min":10,"x_max":661,"o":"m 379 969 q 568 696 568 969 q 507 317 568 511 q 431 133 475 215 q 322 -2 388 50 q 178 -54 256 -54 q 56 -5 101 -54 q 10 122 10 44 q 101 328 10 233 q 332 486 192 422 q 351 687 351 593 q 333 815 351 781 q 281 850 315 850 q 200 832 247 850 q 110 783 153 814 l 72 839 q 216 930 131 890 q 379 969 301 969 m 318 378 q 174 277 233 342 q 114 147 114 213 q 165 81 114 81 q 251 153 210 82 q 318 378 292 225 m 107 1078 q 303 1207 178 1138 q 465 1276 428 1276 q 563 1205 501 1276 q 661 1076 624 1133 l 614 1032 q 421 1117 465 1107 q 253 1067 350 1104 q 144 1026 157 1031 l 107 1078 z "},"":{"ha":553,"x_min":10,"x_max":628,"o":"m 379 969 q 568 696 568 969 q 507 317 568 511 q 431 133 475 215 q 322 -2 388 50 q 178 -54 256 -54 q 56 -5 101 -54 q 10 122 10 44 q 101 328 10 233 q 332 486 192 422 q 351 687 351 593 q 333 815 351 781 q 281 850 315 850 q 200 832 247 850 q 110 783 153 814 l 72 839 q 216 930 131 890 q 379 969 301 969 m 318 378 q 174 277 233 342 q 114 147 114 213 q 165 81 114 81 q 251 153 210 82 q 318 378 292 225 m 233 1063 q 212 1063 233 1063 q 167 1086 190 1063 q 144 1151 144 1110 q 176 1220 144 1192 q 251 1249 208 1249 q 342 1161 342 1249 q 309 1092 342 1122 q 233 1063 276 1063 m 518 1063 q 497 1063 518 1063 q 453 1086 475 1063 q 431 1151 431 1110 q 462 1220 431 1192 q 536 1249 493 1249 q 628 1161 628 1249 q 594 1092 628 1122 q 518 1063 561 1063 z "},"":{"ha":1090,"x_min":33,"x_max":1086,"o":"m 231 886 q 272 909 231 886 q 414 957 313 932 q 617 982 515 982 q 799 960 719 982 q 944 893 878 939 q 1049 767 1011 847 q 1086 578 1086 686 q 1051 365 1086 471 q 958 174 1017 260 q 810 35 899 89 q 613 -18 722 -18 q 374 68 503 -18 q 183 -17 281 -17 q 76 19 118 -17 q 33 114 33 54 q 79 211 33 174 q 188 249 125 249 q 322 218 251 249 q 350 293 340 261 l 363 335 q 141 427 231 363 q 51 591 51 492 q 101 765 51 690 q 231 886 150 840 m 450 151 q 615 100 553 100 q 730 158 678 100 q 811 300 782 215 q 874 618 874 475 q 797 830 874 761 q 583 899 719 899 q 278 809 414 899 q 142 613 142 719 q 209 496 142 542 q 385 429 276 450 q 424 682 424 599 q 393 756 424 729 l 393 769 q 582 811 474 811 l 640 806 q 647 743 647 789 q 585 413 647 589 q 740 435 690 415 q 743 390 743 418 q 726 329 743 363 q 546 314 660 314 q 450 151 501 219 m 179 89 q 272 135 233 89 q 190 165 221 165 q 125 128 125 165 q 139 100 125 111 q 179 89 153 89 z "},"":{"ha":1058,"x_min":24,"x_max":1033,"o":"m 571 717 l 572 690 q 546 456 572 582 q 472 214 519 329 q 349 22 425 99 q 194 -54 274 -54 q 69 -7 114 -54 q 24 124 24 40 q 131 410 24 256 q 356 667 238 565 q 325 829 356 800 q 281 843 310 843 q 198 818 253 843 q 93 750 143 793 l 58 799 q 205 915 108 860 q 389 969 301 969 q 561 808 528 969 q 888 986 764 986 q 991 938 949 986 q 1033 806 1033 889 q 965 474 1033 724 q 897 158 897 224 q 939 92 897 92 q 974 99 953 92 l 994 46 q 825 -17 904 -17 q 713 21 746 -17 q 681 119 681 58 q 746 434 681 181 q 811 749 811 688 q 756 825 811 825 q 571 717 689 825 m 443 1063 q 585 1251 463 1251 q 730 1226 632 1251 q 859 1201 828 1201 q 903 1203 890 1201 q 953 1247 931 1208 l 997 1239 q 974 1138 992 1182 q 854 1060 946 1060 q 728 1084 822 1060 q 591 1108 635 1108 q 528 1098 547 1108 q 489 1053 508 1088 l 443 1063 m 167 78 q 277 211 222 78 q 351 553 332 344 q 198 354 275 482 q 121 144 121 226 q 134 94 121 111 q 167 78 147 78 z "},"":{"ha":878,"x_min":44,"x_max":1028,"o":"m 1007 447 q 1028 365 1022 410 q 931 325 996 346 q 808 300 865 304 q 640 70 747 157 q 372 -17 532 -17 q 128 91 213 -17 q 44 390 44 199 q 133 738 44 581 q 388 985 222 896 l 417 936 q 267 399 267 749 q 336 108 267 171 q 417 78 368 78 q 617 314 554 78 q 450 406 508 333 q 392 610 392 479 q 467 847 392 742 q 648 951 542 951 q 814 858 754 951 q 874 617 874 764 q 836 390 874 524 q 981 433 899 393 l 1007 447 m 654 620 q 654 670 654 620 q 643 767 654 719 q 590 815 632 815 q 513 753 549 815 q 478 601 478 692 q 518 460 478 511 q 632 403 558 410 q 654 620 654 521 m 381 1271 q 740 1088 436 1271 l 717 1022 q 292 1138 585 1061 q 381 1271 328 1271 z "},"":{"ha":878,"x_min":44,"x_max":1028,"o":"m 1007 447 q 1028 365 1022 410 q 931 325 996 346 q 808 300 865 304 q 640 70 747 157 q 372 -17 532 -17 q 128 91 213 -17 q 44 390 44 199 q 133 738 44 581 q 388 985 222 896 l 417 936 q 267 399 267 749 q 336 108 267 171 q 417 78 368 78 q 617 314 554 78 q 450 406 508 333 q 392 610 392 479 q 467 847 392 742 q 648 951 542 951 q 814 858 754 951 q 874 617 874 764 q 836 390 874 524 q 981 433 899 393 l 1007 447 m 654 620 q 654 670 654 620 q 643 767 654 719 q 590 815 632 815 q 513 753 549 815 q 478 601 478 692 q 518 460 478 511 q 632 403 558 410 q 654 620 654 521 m 839 1175 q 788 1114 839 1136 q 424 1042 661 1078 l 394 1106 q 788 1293 686 1238 q 821 1230 803 1271 q 839 1175 839 1189 z "},"":{"ha":878,"x_min":44,"x_max":1028,"o":"m 1007 447 q 1028 365 1022 410 q 931 325 996 346 q 808 300 865 304 q 640 70 747 157 q 372 -17 532 -17 q 128 91 213 -17 q 44 390 44 199 q 133 738 44 581 q 388 985 222 896 l 417 936 q 267 399 267 749 q 336 108 267 171 q 417 78 368 78 q 617 314 554 78 q 450 406 508 333 q 392 610 392 479 q 467 847 392 742 q 648 951 542 951 q 814 858 754 951 q 874 617 874 764 q 836 390 874 524 q 981 433 899 393 l 1007 447 m 654 620 q 654 670 654 620 q 643 767 654 719 q 590 815 632 815 q 513 753 549 815 q 478 601 478 692 q 518 460 478 511 q 632 403 558 410 q 654 620 654 521 m 278 1078 q 474 1207 349 1138 q 635 1276 599 1276 q 733 1205 672 1276 q 832 1076 794 1133 l 785 1032 q 592 1117 636 1107 q 424 1067 521 1104 q 315 1026 328 1031 l 278 1078 z "},"":{"ha":878,"x_min":44,"x_max":1028,"o":"m 1007 447 q 1028 365 1022 410 q 931 325 996 346 q 808 300 865 304 q 640 70 747 157 q 372 -17 532 -17 q 128 91 213 -17 q 44 390 44 199 q 133 738 44 581 q 388 985 222 896 l 417 936 q 267 399 267 749 q 336 108 267 171 q 417 78 368 78 q 617 314 554 78 q 450 406 508 333 q 392 610 392 479 q 467 847 392 742 q 648 951 542 951 q 814 858 754 951 q 874 617 874 764 q 836 390 874 524 q 981 433 899 393 l 1007 447 m 654 620 q 654 670 654 620 q 643 767 654 719 q 590 815 632 815 q 513 753 549 815 q 478 601 478 692 q 518 460 478 511 q 632 403 558 410 q 654 620 654 521 m 275 1063 q 417 1251 294 1251 q 562 1226 464 1251 q 691 1201 660 1201 q 735 1203 722 1201 q 785 1247 763 1208 l 829 1239 q 806 1138 824 1182 q 686 1060 778 1060 q 560 1084 654 1060 q 423 1108 467 1108 q 360 1098 379 1108 q 321 1053 340 1088 l 275 1063 z "},"":{"ha":878,"x_min":44,"x_max":1028,"o":"m 1007 447 q 1028 365 1022 410 q 931 325 996 346 q 808 300 865 304 q 640 70 747 157 q 372 -17 532 -17 q 128 91 213 -17 q 44 390 44 199 q 133 738 44 581 q 388 985 222 896 l 417 936 q 267 399 267 749 q 336 108 267 171 q 417 78 368 78 q 617 314 554 78 q 450 406 508 333 q 392 610 392 479 q 467 847 392 742 q 648 951 542 951 q 814 858 754 951 q 874 617 874 764 q 836 390 874 524 q 981 433 899 393 l 1007 447 m 654 620 q 654 670 654 620 q 643 767 654 719 q 590 815 632 815 q 513 753 549 815 q 478 601 478 692 q 518 460 478 511 q 632 403 558 410 q 654 620 654 521 m 419 1063 q 398 1063 419 1063 q 353 1086 376 1063 q 331 1151 331 1110 q 363 1220 331 1192 q 438 1249 394 1249 q 528 1161 528 1249 q 495 1092 528 1122 q 419 1063 463 1063 m 704 1063 q 683 1063 704 1063 q 639 1086 661 1063 q 617 1151 617 1110 q 648 1220 617 1192 q 722 1249 679 1249 q 814 1161 814 1249 q 781 1092 814 1122 q 704 1063 747 1063 z "},"":{"ha":685,"x_min":101,"x_max":594,"o":"m 510 149 l 347 311 l 186 149 q 101 231 124 200 l 264 394 l 101 558 q 188 638 135 597 l 347 476 l 507 638 q 594 558 561 597 l 431 393 l 593 231 q 510 149 568 197 z "},"":{"ha":883,"x_min":71,"x_max":876,"o":"m 711 946 q 835 808 794 899 q 876 626 876 718 q 860 450 876 535 q 804 281 843 365 q 710 131 765 196 q 569 24 654 65 q 383 -17 485 -17 q 336 -12 358 -17 q 292 -139 299 -119 q 233 -122 251 -136 q 197 -100 217 -112 l 239 17 q 114 153 157 60 q 71 388 71 246 q 130 670 71 531 q 299 898 189 810 q 544 986 410 986 q 611 981 569 986 l 661 1108 q 749 1083 733 1097 q 761 1072 750 1082 l 711 946 m 431 78 q 536 135 490 78 q 606 283 582 192 q 654 654 654 463 q 643 776 654 731 q 374 88 432 240 q 431 78 394 78 m 524 892 q 394 806 449 892 q 293 356 293 643 q 303 188 293 235 q 572 882 351 315 q 524 892 547 892 z "},"":{"ha":1018,"x_min":4,"x_max":1092,"o":"m 522 810 q 454 492 522 717 q 386 206 386 268 q 444 144 386 144 q 601 229 501 144 q 625 399 606 300 q 767 847 683 708 q 961 986 850 986 q 1059 948 1026 986 q 1092 847 1092 910 q 822 317 1092 650 q 818 207 818 263 q 857 92 818 92 q 897 97 881 92 l 918 44 q 746 -17 832 -17 q 603 129 621 -17 q 318 -17 436 -17 q 203 27 247 -17 q 160 154 160 71 q 192 312 160 203 q 231 440 225 421 q 4 699 4 533 q 110 899 4 813 q 344 986 215 986 q 522 810 522 986 m 257 540 q 306 793 306 710 q 247 876 306 876 q 139 824 188 876 q 90 708 90 771 q 139 602 90 644 q 257 540 188 560 m 447 1271 q 807 1088 503 1271 l 783 1022 q 358 1138 651 1061 q 447 1271 394 1271 m 1008 850 q 981 888 1008 888 q 840 465 919 888 q 956 662 903 547 q 1008 850 1008 776 z "},"":{"ha":1018,"x_min":4,"x_max":1092,"o":"m 522 810 q 454 492 522 717 q 386 206 386 268 q 444 144 386 144 q 601 229 501 144 q 625 399 606 300 q 767 847 683 708 q 961 986 850 986 q 1059 948 1026 986 q 1092 847 1092 910 q 822 317 1092 650 q 818 207 818 263 q 857 92 818 92 q 897 97 881 92 l 918 44 q 746 -17 832 -17 q 603 129 621 -17 q 318 -17 436 -17 q 203 27 247 -17 q 160 154 160 71 q 192 312 160 203 q 231 440 225 421 q 4 699 4 533 q 110 899 4 813 q 344 986 215 986 q 522 810 522 986 m 938 1175 q 886 1114 938 1136 q 522 1042 760 1078 l 493 1106 q 886 1293 785 1238 q 919 1230 901 1271 q 938 1175 938 1189 m 257 540 q 306 793 306 710 q 247 876 306 876 q 139 824 188 876 q 90 708 90 771 q 139 602 90 644 q 257 540 188 560 m 1008 850 q 981 888 1008 888 q 840 465 919 888 q 956 662 903 547 q 1008 850 1008 776 z "},"":{"ha":1018,"x_min":4,"x_max":1092,"o":"m 522 810 q 454 492 522 717 q 386 206 386 268 q 444 144 386 144 q 601 229 501 144 q 625 399 606 300 q 767 847 683 708 q 961 986 850 986 q 1059 948 1026 986 q 1092 847 1092 910 q 822 317 1092 650 q 818 207 818 263 q 857 92 818 92 q 897 97 881 92 l 918 44 q 746 -17 832 -17 q 603 129 621 -17 q 318 -17 436 -17 q 203 27 247 -17 q 160 154 160 71 q 192 312 160 203 q 231 440 225 421 q 4 699 4 533 q 110 899 4 813 q 344 986 215 986 q 522 810 522 986 m 411 1078 q 607 1207 482 1138 q 769 1276 732 1276 q 867 1205 806 1276 q 965 1076 928 1133 l 918 1032 q 725 1117 769 1107 q 558 1067 654 1104 q 449 1026 461 1031 l 411 1078 m 257 540 q 306 793 306 710 q 247 876 306 876 q 139 824 188 876 q 90 708 90 771 q 139 602 90 644 q 257 540 188 560 m 1008 850 q 981 888 1008 888 q 840 465 919 888 q 956 662 903 547 q 1008 850 1008 776 z "},"":{"ha":1018,"x_min":4,"x_max":1092,"o":"m 522 810 q 454 492 522 717 q 386 206 386 268 q 444 144 386 144 q 601 229 501 144 q 625 399 606 300 q 767 847 683 708 q 961 986 850 986 q 1059 948 1026 986 q 1092 847 1092 910 q 822 317 1092 650 q 818 207 818 263 q 857 92 818 92 q 897 97 881 92 l 918 44 q 746 -17 832 -17 q 603 129 621 -17 q 318 -17 436 -17 q 203 27 247 -17 q 160 154 160 71 q 192 312 160 203 q 231 440 225 421 q 4 699 4 533 q 110 899 4 813 q 344 986 215 986 q 522 810 522 986 m 257 540 q 306 793 306 710 q 247 876 306 876 q 139 824 188 876 q 90 708 90 771 q 139 602 90 644 q 257 540 188 560 m 813 1063 q 791 1063 813 1063 q 747 1086 769 1063 q 725 1151 725 1110 q 756 1220 725 1192 q 831 1249 788 1249 q 922 1161 922 1249 q 889 1092 922 1122 q 813 1063 856 1063 m 528 1063 q 506 1063 528 1063 q 462 1086 485 1063 q 439 1151 439 1110 q 471 1220 439 1192 q 546 1249 503 1249 q 636 1161 636 1249 q 603 1092 636 1122 q 528 1063 571 1063 m 1008 850 q 981 888 1008 888 q 840 465 919 888 q 956 662 903 547 q 1008 850 1008 776 z "},"":{"ha":1047,"x_min":11,"x_max":1107,"o":"m 976 32 q 946 -58 960 -40 q 747 -31 857 -31 l 746 -31 q 375 -311 608 -311 q 265 -273 310 -311 q 221 -181 221 -235 q 256 -85 221 -128 q 347 -14 290 -42 q 563 54 450 35 l 590 157 q 358 75 460 75 q 256 113 294 75 q 218 233 218 151 q 235 364 218 299 q 253 436 251 429 q 84 537 157 465 q 11 718 11 608 q 110 907 11 828 q 325 986 208 986 q 497 927 442 986 q 553 783 553 868 q 494 522 553 699 q 435 299 435 344 q 490 236 435 236 q 625 294 546 236 l 654 440 q 729 758 706 697 q 776 863 753 819 q 824 931 799 907 q 956 986 882 986 q 1068 949 1029 986 q 1107 833 1107 911 q 1044 629 1107 754 q 869 379 981 504 q 782 53 836 192 l 794 53 q 957 36 904 50 l 976 32 m 269 540 q 322 796 322 703 q 251 889 322 889 q 146 840 194 889 q 97 719 97 790 q 150 604 97 649 q 269 540 203 560 m 963 1175 q 911 1114 963 1136 q 547 1042 785 1078 l 518 1106 q 911 1293 810 1238 q 944 1230 926 1271 q 963 1175 963 1189 m 893 526 q 986 685 949 590 q 1024 833 1024 781 q 1004 886 1024 886 q 967 847 988 886 q 890 525 931 778 l 893 526 m 324 -165 q 371 -199 324 -199 q 466 -156 418 -199 q 543 -43 514 -114 q 394 -87 464 -50 q 324 -165 324 -125 z "},"":{"ha":763,"x_min":61,"x_max":790,"o":"m 438 815 l 497 817 q 790 583 790 817 q 682 322 790 429 q 368 215 574 215 q 313 217 332 215 q 286 24 288 81 q 75 -4 236 -4 l 61 -4 q 135 361 65 57 q 222 818 206 665 q 208 872 222 840 q 181 922 194 903 l 165 942 l 169 963 q 429 986 251 986 q 446 913 446 958 q 438 815 446 867 m 581 604 q 553 694 581 658 q 488 731 526 731 q 419 722 449 731 q 374 514 407 657 q 329 308 342 371 l 346 308 q 517 390 454 308 q 581 604 581 472 z "},"":{"ha":853,"x_min":39,"x_max":857,"o":"m 857 208 q 774 47 857 110 q 574 -17 692 -17 q 436 17 489 -17 q 383 80 383 51 q 433 167 383 108 q 514 236 482 226 q 573 178 540 226 q 628 63 606 131 q 672 119 672 65 q 640 228 672 174 q 567 321 607 282 q 495 415 528 360 q 463 514 463 471 q 479 583 463 557 q 519 630 496 608 q 567 676 543 651 q 625 838 625 736 q 602 908 625 882 q 536 933 579 933 q 442 809 474 933 q 369 383 410 685 q 304 -28 329 82 q 236 -212 279 -137 l 226 -212 q 126 -201 188 -212 q 39 -175 65 -189 q 181 519 129 92 q 75 507 125 515 q 74 544 74 519 q 79 599 74 569 l 190 599 l 192 606 q 315 931 233 843 q 554 1018 396 1018 q 738 977 661 1018 q 814 849 814 936 q 789 749 814 792 q 735 686 764 707 q 656 588 656 632 q 756 422 656 532 q 826 321 794 381 q 857 208 857 261 z "},"":{"ha":667,"x_min":44,"x_max":683,"o":"m 456 575 q 471 611 458 578 q 646 572 536 611 q 590 331 611 457 q 569 152 569 206 q 581 99 569 99 q 642 125 589 99 l 658 133 l 683 85 q 651 57 671 74 q 575 12 631 40 q 475 -17 519 -17 q 375 61 389 -17 q 215 -17 286 -17 q 94 39 143 -17 q 44 214 44 94 q 121 508 44 400 q 306 615 197 615 q 456 575 383 615 m 297 101 q 372 128 331 101 q 438 515 382 324 q 367 533 396 533 q 281 435 317 533 q 246 219 246 338 q 297 101 246 101 m 282 963 q 404 904 319 963 q 444 877 426 889 q 488 846 461 865 q 531 814 514 826 q 619 746 572 779 l 589 693 q 183 833 418 758 q 282 963 236 963 z "},"":{"ha":667,"x_min":44,"x_max":683,"o":"m 456 575 q 471 611 458 578 q 646 572 536 611 q 590 331 611 457 q 569 152 569 206 q 581 99 569 99 q 642 125 589 99 l 658 133 l 683 85 q 651 57 671 74 q 575 12 631 40 q 475 -17 519 -17 q 375 61 389 -17 q 215 -17 286 -17 q 94 39 143 -17 q 44 214 44 94 q 121 508 44 400 q 306 615 197 615 q 456 575 383 615 m 297 101 q 372 128 331 101 q 438 515 382 324 q 367 533 396 533 q 281 435 317 533 q 246 219 246 338 q 297 101 246 101 m 649 856 q 599 793 649 817 q 258 699 531 761 l 233 754 q 469 893 364 822 q 600 979 575 964 q 631 918 614 960 q 649 856 649 876 z "},"":{"ha":667,"x_min":44,"x_max":683,"o":"m 456 575 q 471 611 458 578 q 646 572 536 611 q 590 331 611 457 q 569 152 569 206 q 581 99 569 99 q 642 125 589 99 l 658 133 l 683 85 q 651 57 671 74 q 575 12 631 40 q 475 -17 519 -17 q 375 61 389 -17 q 215 -17 286 -17 q 94 39 143 -17 q 44 214 44 94 q 121 508 44 400 q 306 615 197 615 q 456 575 383 615 m 297 101 q 372 128 331 101 q 438 515 382 324 q 367 533 396 533 q 281 435 317 533 q 246 219 246 338 q 297 101 246 101 m 497 979 q 674 744 543 979 l 631 704 q 451 819 511 797 q 189 699 339 789 l 151 750 q 342 900 225 821 q 497 979 460 979 z "},"":{"ha":667,"x_min":44,"x_max":697,"o":"m 456 575 q 471 611 458 578 q 646 572 536 611 q 590 331 611 457 q 569 152 569 206 q 581 99 569 99 q 642 125 589 99 l 658 133 l 683 85 q 651 57 671 74 q 575 12 631 40 q 475 -17 519 -17 q 375 61 389 -17 q 215 -17 286 -17 q 94 39 143 -17 q 44 214 44 94 q 121 508 44 400 q 306 615 197 615 q 456 575 383 615 m 297 101 q 372 128 331 101 q 438 515 382 324 q 367 533 396 533 q 281 435 317 533 q 246 219 246 338 q 297 101 246 101 m 160 738 q 300 935 179 935 q 438 910 347 935 q 567 886 529 886 q 619 894 604 886 q 654 936 635 903 l 697 928 q 675 821 692 864 q 556 739 643 739 q 437 763 524 739 q 308 788 350 788 q 245 776 265 788 q 204 728 225 764 l 160 738 z "},"":{"ha":667,"x_min":44,"x_max":683,"o":"m 456 575 q 471 611 458 578 q 646 572 536 611 q 590 331 611 457 q 569 152 569 206 q 581 99 569 99 q 642 125 589 99 l 658 133 l 683 85 q 651 57 671 74 q 575 12 631 40 q 475 -17 519 -17 q 375 61 389 -17 q 215 -17 286 -17 q 94 39 143 -17 q 44 214 44 94 q 121 508 44 400 q 306 615 197 615 q 456 575 383 615 m 297 101 q 372 128 331 101 q 438 515 382 324 q 367 533 396 533 q 281 435 317 533 q 246 219 246 338 q 297 101 246 101 m 287 749 q 266 749 287 749 q 224 774 246 749 q 201 840 201 799 q 233 912 201 882 q 304 942 264 942 q 392 851 392 942 q 360 780 392 811 q 287 749 328 749 m 558 749 q 538 749 558 749 q 495 773 517 749 q 474 840 474 797 q 505 912 474 882 q 578 942 536 942 q 642 917 619 942 q 664 852 664 893 q 632 780 664 811 q 558 749 600 749 z "},"":{"ha":667,"x_min":44,"x_max":683,"o":"m 456 575 q 471 611 458 578 q 646 572 536 611 q 590 331 611 457 q 569 152 569 206 q 581 99 569 99 q 642 125 589 99 l 658 133 l 683 85 q 651 57 671 74 q 575 12 631 40 q 475 -17 519 -17 q 375 61 389 -17 q 215 -17 286 -17 q 94 39 143 -17 q 44 214 44 94 q 121 508 44 400 q 306 615 197 615 q 456 575 383 615 m 297 101 q 372 128 331 101 q 438 515 382 324 q 367 533 396 533 q 281 435 317 533 q 246 219 246 338 q 297 101 246 101 m 322 765 q 302 786 322 765 q 282 871 282 807 q 322 976 282 935 q 435 1017 361 1017 q 548 976 508 1017 q 588 871 588 935 q 548 765 588 807 q 435 724 508 724 q 322 765 361 724 m 381 920 q 372 911 381 920 q 363 871 363 901 q 381 822 363 840 q 434 803 400 803 q 485 822 468 803 q 503 871 503 840 q 485 920 503 901 q 434 939 468 939 q 381 920 400 939 z "},"":{"ha":896,"x_min":44,"x_max":908,"o":"m 306 615 q 453 576 382 615 q 471 611 461 597 q 571 575 510 604 q 724 615 644 615 q 856 575 803 615 q 908 467 908 535 q 874 354 908 400 q 792 283 840 308 q 611 222 693 235 l 578 218 q 685 88 588 88 q 756 104 718 88 q 814 138 793 121 l 835 154 l 868 110 q 824 69 857 94 q 761 28 790 44 q 594 -17 681 -17 q 413 97 465 -17 q 315 19 379 54 q 207 -17 251 -17 q 94 39 143 -17 q 44 214 44 94 q 121 508 44 400 q 306 615 197 615 m 396 147 q 386 286 386 175 q 428 519 386 397 q 367 533 396 533 q 281 435 317 533 q 246 219 246 338 q 298 101 246 101 q 396 147 350 101 m 576 286 q 689 346 647 299 q 731 468 731 393 q 686 543 731 543 q 605 453 633 543 q 576 286 576 364 z "},"":{"ha":551,"x_min":36,"x_max":564,"o":"m 361 546 q 272 453 306 546 q 239 256 239 361 q 342 89 239 89 q 413 105 375 89 q 472 136 450 121 l 493 153 l 525 110 q 499 84 515 100 q 430 36 482 68 q 325 -8 378 4 q 265 -69 290 -33 q 239 -140 239 -106 q 272 -174 239 -174 q 351 -147 306 -174 l 367 -137 l 392 -176 q 365 -201 382 -186 q 299 -240 349 -215 q 206 -264 249 -264 q 136 -238 163 -264 q 110 -172 110 -212 q 144 -88 110 -131 q 224 -15 179 -46 q 83 64 129 -6 q 36 244 36 133 q 127 513 36 410 q 361 615 218 615 q 509 573 454 615 q 564 469 564 531 q 525 363 564 407 q 444 378 490 363 q 375 415 399 393 l 396 538 q 361 546 383 546 z "},"":{"ha":554,"x_min":36,"x_max":567,"o":"m 36 240 q 141 515 36 414 q 379 615 246 615 q 514 575 461 615 q 567 467 567 535 q 533 354 567 400 q 450 283 499 308 q 269 222 351 235 l 236 218 q 343 88 246 88 q 414 104 376 88 q 472 138 451 121 l 493 154 l 526 110 q 482 69 515 94 q 419 28 449 44 q 243 -17 339 -17 q 92 51 147 -17 q 36 240 36 119 m 235 286 q 347 346 306 299 q 389 468 389 393 q 344 543 389 543 q 263 453 292 543 q 235 286 235 364 m 218 963 q 340 904 256 963 q 380 877 363 889 q 424 846 397 865 q 467 814 450 826 q 556 746 508 779 l 525 693 q 119 833 354 758 q 218 963 172 963 z "},"":{"ha":554,"x_min":36,"x_max":571,"o":"m 36 240 q 141 515 36 414 q 379 615 246 615 q 514 575 461 615 q 567 467 567 535 q 533 354 567 400 q 450 283 499 308 q 269 222 351 235 l 236 218 q 343 88 246 88 q 414 104 376 88 q 472 138 451 121 l 493 154 l 526 110 q 482 69 515 94 q 419 28 449 44 q 243 -17 339 -17 q 92 51 147 -17 q 36 240 36 119 m 235 286 q 347 346 306 299 q 389 468 389 393 q 344 543 389 543 q 263 453 292 543 q 235 286 235 364 m 571 856 q 521 793 571 817 q 181 699 453 761 l 156 754 q 392 893 286 822 q 522 979 497 964 q 553 918 536 960 q 571 856 571 876 z "},"":{"ha":554,"x_min":36,"x_max":636,"o":"m 36 240 q 141 515 36 414 q 379 615 246 615 q 514 575 461 615 q 567 467 567 535 q 533 354 567 400 q 450 283 499 308 q 269 222 351 235 l 236 218 q 343 88 246 88 q 414 104 376 88 q 472 138 451 121 l 493 154 l 526 110 q 482 69 515 94 q 419 28 449 44 q 243 -17 339 -17 q 92 51 147 -17 q 36 240 36 119 m 235 286 q 347 346 306 299 q 389 468 389 393 q 344 543 389 543 q 263 453 292 543 q 235 286 235 364 m 460 979 q 636 744 506 979 l 593 704 q 414 819 474 797 q 151 699 301 789 l 114 750 q 305 900 188 821 q 460 979 422 979 z "},"":{"ha":554,"x_min":36,"x_max":614,"o":"m 36 240 q 141 515 36 414 q 379 615 246 615 q 514 575 461 615 q 567 467 567 535 q 533 354 567 400 q 450 283 499 308 q 269 222 351 235 l 236 218 q 343 88 246 88 q 414 104 376 88 q 472 138 451 121 l 493 154 l 526 110 q 482 69 515 94 q 419 28 449 44 q 243 -17 339 -17 q 92 51 147 -17 q 36 240 36 119 m 235 286 q 347 346 306 299 q 389 468 389 393 q 344 543 389 543 q 263 453 292 543 q 235 286 235 364 m 237 749 q 216 749 237 749 q 174 774 196 749 q 151 840 151 799 q 183 912 151 882 q 254 942 214 942 q 342 851 342 942 q 310 780 342 811 q 237 749 278 749 m 508 749 q 488 749 508 749 q 445 773 467 749 q 424 840 424 797 q 455 912 424 882 q 528 942 486 942 q 592 917 569 942 q 614 852 614 893 q 582 780 614 811 q 508 749 550 749 z "},"":{"ha":379,"x_min":35,"x_max":425,"o":"m 133 956 q 213 922 161 956 q 308 850 265 888 q 425 744 350 813 l 394 692 q 35 826 113 801 q 133 956 88 956 m 254 136 q 267 99 254 99 q 331 125 275 99 l 347 133 l 371 85 q 338 57 358 74 q 260 12 317 40 q 154 -17 203 -17 q 78 13 106 -17 q 50 94 50 43 q 85 274 50 144 q 119 443 119 404 q 83 553 119 501 l 71 569 l 72 588 q 311 608 146 608 q 329 528 329 588 q 293 330 329 468 q 256 167 257 192 q 254 136 254 143 z "},"":{"ha":379,"x_min":50,"x_max":447,"o":"m 68 757 q 399 972 185 819 q 430 911 413 953 q 447 849 447 869 q 397 786 447 810 q 93 700 292 738 l 68 757 m 254 136 q 267 99 254 99 q 331 125 275 99 l 347 133 l 371 85 q 338 57 358 74 q 260 12 317 40 q 154 -17 203 -17 q 78 13 106 -17 q 50 94 50 43 q 85 274 50 144 q 119 443 119 404 q 83 553 119 501 l 71 569 l 72 588 q 311 608 146 608 q 329 528 329 588 q 293 330 329 468 q 256 167 257 192 q 254 136 254 143 z "},"":{"ha":379,"x_min":29,"x_max":485,"o":"m 331 979 q 485 749 369 979 l 439 704 q 417 724 433 708 q 394 744 400 739 q 374 763 388 750 q 351 781 360 775 q 331 794 343 786 q 289 819 304 814 q 68 699 201 792 l 29 754 q 194 901 92 824 q 331 979 297 979 m 254 136 q 267 99 254 99 q 331 125 275 99 l 347 133 l 371 85 q 338 57 358 74 q 260 12 317 40 q 154 -17 203 -17 q 78 13 106 -17 q 50 94 50 43 q 85 274 50 144 q 119 443 119 404 q 83 553 119 501 l 71 569 l 72 588 q 311 608 146 608 q 329 528 329 588 q 293 330 329 468 q 256 167 257 192 q 254 136 254 143 z "},"":{"ha":390,"x_min":61,"x_max":488,"o":"m 71 839 q 100 912 71 882 q 169 942 129 942 q 256 851 256 942 q 224 780 256 811 q 151 749 193 749 q 71 839 71 749 m 385 749 q 364 749 385 749 q 322 773 343 749 q 301 840 301 797 q 332 912 301 882 q 403 942 363 942 q 488 851 488 942 q 457 780 488 811 q 385 749 426 749 m 265 136 q 278 99 265 99 q 342 125 286 99 l 358 133 l 382 85 q 349 57 369 74 q 271 12 328 40 q 165 -17 214 -17 q 89 13 117 -17 q 61 94 61 43 q 96 274 61 144 q 131 443 131 404 q 94 553 131 501 l 82 569 l 83 588 q 322 608 157 608 q 340 528 340 588 q 304 330 340 468 q 267 167 268 192 q 265 136 265 143 z "},"":{"ha":658,"x_min":31,"x_max":664,"o":"m 644 418 q 594 181 644 289 q 292 -17 501 -17 q 98 56 165 -17 q 31 259 31 129 q 122 502 31 389 q 357 615 214 615 q 422 608 388 615 q 382 754 407 692 l 219 706 q 196 786 196 732 l 342 829 q 190 968 285 915 l 222 1019 q 474 867 367 982 l 647 918 q 664 843 664 875 l 663 838 l 528 797 q 644 418 644 624 m 436 414 q 432 528 436 474 q 396 532 413 532 q 267 439 310 532 q 225 228 225 346 q 307 71 225 71 q 406 171 375 71 q 436 414 436 271 z "},"":{"ha":706,"x_min":53,"x_max":719,"o":"m 79 -4 l 53 -4 q 92 246 53 61 q 132 456 132 431 q 93 553 132 501 l 81 569 l 82 588 q 322 608 157 608 q 342 522 340 585 q 546 615 463 615 q 626 581 596 615 q 656 494 656 546 q 624 314 656 442 q 592 142 592 186 q 603 99 592 99 q 661 125 611 99 l 678 133 l 703 85 q 669 57 690 74 q 592 12 649 40 q 492 -17 536 -17 q 390 99 390 -17 q 422 278 390 147 q 453 446 453 408 q 429 483 453 483 q 331 449 389 483 q 303 324 326 425 q 254 15 254 106 q 79 -4 206 -4 m 182 729 q 322 926 201 926 q 460 902 369 926 q 589 878 551 878 q 642 886 626 878 q 676 928 657 894 l 719 919 q 697 813 714 856 q 578 731 665 731 q 459 755 546 731 q 330 779 372 779 q 267 767 288 779 q 226 719 247 756 l 182 729 z "},"":{"ha":568,"x_min":32,"x_max":701,"o":"m 236 -17 q 86 51 140 -17 q 32 239 32 118 q 115 504 32 393 q 343 615 197 615 l 393 613 q 446 625 417 625 q 556 418 556 625 q 671 433 613 421 l 693 439 l 701 385 q 578 350 656 365 l 550 344 q 443 91 524 199 q 236 -17 363 -17 m 311 103 q 416 178 369 103 q 481 336 463 253 q 332 447 332 336 q 350 531 332 492 l 357 544 q 343 547 351 547 q 331 544 335 547 q 265 440 296 522 q 235 253 235 358 q 311 103 235 103 m 242 963 q 364 904 279 963 q 403 877 386 889 q 447 846 421 865 q 490 814 474 826 q 579 746 532 779 l 549 693 q 143 833 378 758 q 242 963 196 963 z "},"":{"ha":568,"x_min":32,"x_max":701,"o":"m 236 -17 q 86 51 140 -17 q 32 239 32 118 q 115 504 32 393 q 343 615 197 615 l 393 613 q 446 625 417 625 q 556 418 556 625 q 671 433 613 421 l 693 439 l 701 385 q 578 350 656 365 l 550 344 q 443 91 524 199 q 236 -17 363 -17 m 311 103 q 416 178 369 103 q 481 336 463 253 q 332 447 332 336 q 350 531 332 492 l 357 544 q 343 547 351 547 q 331 544 335 547 q 265 440 296 522 q 235 253 235 358 q 311 103 235 103 m 583 856 q 533 793 583 817 q 193 699 465 761 l 168 754 q 404 893 299 822 q 535 979 510 964 q 566 918 549 960 q 583 856 583 876 z "},"":{"ha":568,"x_min":32,"x_max":701,"o":"m 236 -17 q 86 51 140 -17 q 32 239 32 118 q 115 504 32 393 q 343 615 197 615 l 393 613 q 446 625 417 625 q 556 418 556 625 q 671 433 613 421 l 693 439 l 701 385 q 578 350 656 365 l 550 344 q 443 91 524 199 q 236 -17 363 -17 m 311 103 q 416 178 369 103 q 481 336 463 253 q 332 447 332 336 q 350 531 332 492 l 357 544 q 343 547 351 547 q 331 544 335 547 q 265 440 296 522 q 235 253 235 358 q 311 103 235 103 m 456 979 q 632 744 501 979 l 589 704 q 410 819 469 797 q 147 699 297 789 l 110 750 q 301 900 183 821 q 456 979 418 979 z "},"":{"ha":568,"x_min":32,"x_max":701,"o":"m 236 -17 q 86 51 140 -17 q 32 239 32 118 q 115 504 32 393 q 343 615 197 615 l 393 613 q 446 625 417 625 q 556 418 556 625 q 671 433 613 421 l 693 439 l 701 385 q 578 350 656 365 l 550 344 q 443 91 524 199 q 236 -17 363 -17 m 311 103 q 416 178 369 103 q 481 336 463 253 q 332 447 332 336 q 350 531 332 492 l 357 544 q 343 547 351 547 q 331 544 335 547 q 265 440 296 522 q 235 253 235 358 q 311 103 235 103 m 93 738 q 233 935 113 935 q 372 910 281 935 q 500 886 463 886 q 553 894 538 886 q 588 936 568 903 l 631 928 q 608 821 625 864 q 489 739 576 739 q 370 763 457 739 q 241 788 283 788 q 178 776 199 788 q 138 728 158 764 l 93 738 z "},"":{"ha":568,"x_min":32,"x_max":701,"o":"m 236 -17 q 86 51 140 -17 q 32 239 32 118 q 115 504 32 393 q 343 615 197 615 l 393 613 q 446 625 417 625 q 556 418 556 625 q 671 433 613 421 l 693 439 l 701 385 q 578 350 656 365 l 550 344 q 443 91 524 199 q 236 -17 363 -17 m 311 103 q 416 178 369 103 q 481 336 463 253 q 332 447 332 336 q 350 531 332 492 l 357 544 q 343 547 351 547 q 331 544 335 547 q 265 440 296 522 q 235 253 235 358 q 311 103 235 103 m 233 749 q 212 749 233 749 q 169 774 192 749 q 147 840 147 799 q 178 912 147 882 q 250 942 210 942 q 338 851 338 942 q 306 780 338 811 q 233 749 274 749 m 504 749 q 483 749 504 749 q 441 773 463 749 q 419 840 419 797 q 451 912 419 882 q 524 942 482 942 q 588 917 565 942 q 610 852 610 893 q 578 780 610 811 q 504 749 546 749 z "},"":{"ha":711,"x_min":97,"x_max":625,"o":"m 97 331 q 113 451 97 418 l 625 451 q 617 331 625 358 l 97 331 m 350 533 q 329 533 350 533 q 286 558 308 533 q 264 624 264 583 q 294 696 264 665 q 367 726 325 726 q 431 701 408 726 q 454 637 454 676 q 423 565 454 597 q 350 533 392 533 m 339 56 q 318 56 339 56 q 275 81 297 56 q 253 147 253 106 q 283 218 253 188 q 356 249 314 249 q 420 224 397 249 q 443 159 443 199 q 412 88 443 119 q 339 56 381 56 z "},"":{"ha":572,"x_min":32,"x_max":556,"o":"m 32 239 q 115 504 32 393 q 343 615 197 615 q 388 613 376 615 l 425 732 q 511 706 469 732 q 472 583 492 649 q 556 394 554 533 q 526 236 556 319 q 436 81 497 153 q 297 -10 375 10 l 265 -128 q 192 -115 222 -128 l 182 -108 l 208 -14 q 79 64 126 -3 q 32 239 32 131 m 365 540 q 257 441 303 535 q 211 252 211 347 q 247 124 211 157 q 365 540 328 417 m 329 107 q 430 210 385 125 q 475 383 475 296 q 447 506 475 469 q 329 107 383 304 z "},"":{"ha":693,"x_min":53,"x_max":696,"o":"m 53 105 q 53 134 53 105 q 89 308 53 164 q 125 484 125 451 q 75 571 125 517 l 76 589 q 325 608 171 608 q 332 543 332 590 q 293 342 332 496 q 254 150 254 188 q 282 113 254 113 q 375 142 322 113 q 403 269 381 175 q 453 588 453 492 q 628 607 501 607 l 654 607 q 615 352 654 542 q 576 130 576 163 q 590 97 576 97 q 669 131 599 97 l 696 86 q 479 -17 572 -17 q 403 8 435 -17 q 368 74 372 33 q 164 -18 256 -18 q 84 14 115 -18 q 53 105 53 46 m 254 963 q 376 904 292 963 q 416 877 399 889 q 460 846 433 865 q 503 814 486 826 q 592 746 544 779 l 561 693 q 156 833 390 758 q 254 963 208 963 z "},"":{"ha":693,"x_min":53,"x_max":696,"o":"m 53 105 q 53 134 53 105 q 89 308 53 164 q 125 484 125 451 q 75 571 125 517 l 76 589 q 325 608 171 608 q 332 543 332 590 q 293 342 332 496 q 254 150 254 188 q 282 113 254 113 q 375 142 322 113 q 403 269 381 175 q 453 588 453 492 q 628 607 501 607 l 654 607 q 615 352 654 542 q 576 130 576 163 q 590 97 576 97 q 669 131 599 97 l 696 86 q 479 -17 572 -17 q 403 8 435 -17 q 368 74 372 33 q 164 -18 256 -18 q 84 14 115 -18 q 53 105 53 46 m 638 856 q 588 793 638 817 q 247 699 519 761 l 222 754 q 458 893 353 822 q 589 979 564 964 q 620 918 603 960 q 638 856 638 876 z "},"":{"ha":693,"x_min":53,"x_max":696,"o":"m 53 105 q 53 134 53 105 q 89 308 53 164 q 125 484 125 451 q 75 571 125 517 l 76 589 q 325 608 171 608 q 332 543 332 590 q 293 342 332 496 q 254 150 254 188 q 282 113 254 113 q 375 142 322 113 q 403 269 381 175 q 453 588 453 492 q 628 607 501 607 l 654 607 q 615 352 654 542 q 576 130 576 163 q 590 97 576 97 q 669 131 599 97 l 696 86 q 479 -17 572 -17 q 403 8 435 -17 q 368 74 372 33 q 164 -18 256 -18 q 84 14 115 -18 q 53 105 53 46 m 483 979 q 660 744 529 979 l 617 704 q 438 819 497 797 q 175 699 325 789 l 138 750 q 328 900 211 821 q 483 979 446 979 z "},"":{"ha":693,"x_min":53,"x_max":696,"o":"m 53 105 q 53 134 53 105 q 89 308 53 164 q 125 484 125 451 q 75 571 125 517 l 76 589 q 325 608 171 608 q 332 543 332 590 q 293 342 332 496 q 254 150 254 188 q 282 113 254 113 q 375 142 322 113 q 403 269 381 175 q 453 588 453 492 q 628 607 501 607 l 654 607 q 615 352 654 542 q 576 130 576 163 q 590 97 576 97 q 669 131 599 97 l 696 86 q 479 -17 572 -17 q 403 8 435 -17 q 368 74 372 33 q 164 -18 256 -18 q 84 14 115 -18 q 53 105 53 46 m 287 749 q 266 749 287 749 q 224 774 246 749 q 201 840 201 799 q 233 912 201 882 q 304 942 264 942 q 392 851 392 942 q 360 780 392 811 q 287 749 328 749 m 558 749 q 538 749 558 749 q 495 773 517 749 q 474 840 474 797 q 505 912 474 882 q 578 942 536 942 q 642 917 619 942 q 664 852 664 893 q 632 780 664 811 q 558 749 600 749 z "},"":{"ha":635,"x_min":47,"x_max":646,"o":"m 163 -6 q 47 122 47 -6 q 75 299 47 153 q 103 542 103 444 q 97 581 103 563 q 303 610 172 610 q 310 543 310 590 q 279 354 310 496 q 249 169 249 213 q 271 126 249 126 q 389 169 332 126 q 444 588 393 221 q 619 607 493 607 l 646 607 q 591 277 629 542 q 536 -58 553 13 q 491 -183 519 -129 q 422 -265 463 -237 q 339 -301 381 -292 q 231 -311 297 -311 q 106 -269 165 -311 q 47 -196 47 -226 q 97 -136 47 -176 q 179 -86 146 -96 q 283 -240 250 -157 q 347 -154 319 -240 q 385 99 375 -68 q 283 30 351 65 q 163 -6 215 -6 m 614 856 q 564 793 614 817 q 224 699 496 761 l 199 754 q 435 893 329 822 q 565 979 540 964 q 597 918 579 960 q 614 856 614 876 z "},"":{"ha":638,"x_min":-6,"x_max":624,"o":"m 1 -311 q -6 -227 -6 -294 q 40 63 -6 -160 q 131 533 85 286 q 176 925 176 779 q 169 982 176 947 q 376 1019 278 1019 q 383 969 383 1000 q 324 565 383 844 q 463 615 399 615 q 576 559 528 615 q 624 388 624 503 q 540 97 624 210 q 344 -17 457 -17 q 214 10 275 -17 q 192 -274 192 -143 q 1 -311 117 -304 m 428 350 q 428 398 428 350 q 414 472 428 446 q 374 497 400 497 q 306 481 347 497 q 225 85 243 193 q 300 69 258 69 q 393 162 358 69 q 428 350 428 254 z "},"":{"ha":635,"x_min":47,"x_max":647,"o":"m 163 -6 q 47 122 47 -6 q 75 299 47 153 q 103 542 103 444 q 97 581 103 563 q 303 610 172 610 q 310 543 310 590 q 279 354 310 496 q 249 169 249 213 q 271 126 249 126 q 389 169 332 126 q 444 588 393 221 q 619 607 493 607 l 646 607 q 591 277 629 542 q 536 -58 553 13 q 491 -183 519 -129 q 422 -265 463 -237 q 339 -301 381 -292 q 231 -311 297 -311 q 106 -269 165 -311 q 47 -196 47 -226 q 97 -136 47 -176 q 179 -86 146 -96 q 283 -240 250 -157 q 347 -154 319 -240 q 385 99 375 -68 q 283 30 351 65 q 163 -6 215 -6 m 270 749 q 250 749 270 749 q 207 774 229 749 q 185 840 185 799 q 216 912 185 882 q 288 942 247 942 q 375 851 375 942 q 343 780 375 811 q 270 749 311 749 m 542 749 q 521 749 542 749 q 478 773 500 749 q 457 840 457 797 q 488 912 457 882 q 561 942 519 942 q 625 917 603 942 q 647 852 647 893 q 615 780 647 811 q 542 749 583 749 z "},"":{"ha":690,"x_min":40,"x_max":688,"o":"m 197 810 q 206 915 206 868 q 197 982 206 963 q 401 1019 306 1019 q 414 958 414 1007 q 397 810 414 910 l 604 810 q 597 725 604 760 l 379 725 q 336 533 369 682 q 533 615 449 615 q 613 582 586 615 q 640 494 640 549 q 608 315 640 439 q 576 144 576 190 q 588 99 576 99 q 647 124 599 99 l 663 132 l 688 83 q 654 56 675 72 q 578 11 633 39 q 476 -17 522 -17 q 401 13 429 -17 q 374 94 374 43 q 405 278 374 144 q 436 448 436 413 q 407 483 436 483 q 317 453 369 483 q 240 17 240 117 q 42 -6 182 -6 q 40 51 40 18 q 65 198 40 83 q 128 470 90 313 q 183 725 165 628 l 93 725 q 100 810 93 779 l 197 810 z "},"":{"ha":553,"x_min":10,"x_max":636,"o":"m 379 969 q 568 696 568 969 q 507 317 568 511 q 431 133 475 215 q 322 -2 388 50 q 178 -54 256 -54 q 56 -5 101 -54 q 10 122 10 44 q 101 328 10 233 q 332 486 192 422 q 351 687 351 593 q 333 815 351 781 q 281 850 315 850 q 200 832 247 850 q 110 783 153 814 l 72 839 q 216 930 131 890 q 379 969 301 969 m 318 378 q 174 277 233 342 q 114 147 114 213 q 165 81 114 81 q 251 153 210 82 q 318 378 292 225 m 82 1063 q 224 1251 101 1251 q 369 1226 271 1251 q 498 1201 467 1201 q 542 1203 529 1201 q 592 1247 569 1208 l 636 1239 q 613 1138 631 1182 q 493 1060 585 1060 q 367 1084 461 1060 q 230 1108 274 1108 q 167 1098 186 1108 q 128 1053 147 1088 l 82 1063 z "},"":{"ha":379,"x_min":46,"x_max":490,"o":"m 46 740 q 175 924 61 924 q 276 905 208 924 q 369 886 343 886 q 412 894 394 886 q 447 925 429 901 l 490 917 q 469 817 486 867 q 353 742 444 742 q 263 760 328 742 q 169 779 197 779 q 127 769 142 779 q 90 731 113 760 l 46 740 m 254 136 q 267 99 254 99 q 331 125 275 99 l 347 133 l 371 85 q 338 57 358 74 q 260 12 317 40 q 154 -17 203 -17 q 78 13 106 -17 q 50 94 50 43 q 85 274 50 144 q 119 443 119 404 q 83 553 119 501 l 71 569 l 72 588 q 311 608 146 608 q 329 528 329 588 q 293 330 329 468 q 256 167 257 192 q 254 136 254 143 z "},"":{"ha":379,"x_min":50,"x_max":371,"o":"m 254 136 q 267 99 254 99 q 331 125 275 99 l 347 133 l 371 85 q 338 57 358 74 q 260 12 317 40 q 154 -17 203 -17 q 78 13 106 -17 q 50 94 50 43 q 85 274 50 144 q 119 443 119 404 q 83 553 119 501 l 71 569 l 72 588 q 311 608 146 608 q 329 528 329 588 q 293 330 329 468 q 256 167 257 192 q 254 136 254 143 z "},"":{"ha":1121,"x_min":10,"x_max":1239,"o":"m 906 969 q 949 969 906 969 q 1025 900 992 969 q 1058 683 1058 831 q 1021 350 1058 536 q 1161 361 1106 361 q 1235 361 1217 361 q 1238 328 1238 350 q 1225 265 1238 306 q 1113 269 1175 271 q 1001 261 1051 268 q 864 -94 950 47 q 756 -214 818 -171 q 621 -257 694 -257 q 502 -206 547 -257 q 457 -74 457 -154 q 555 152 457 47 q 794 310 653 257 q 839 682 839 497 q 826 803 839 771 q 788 835 813 835 q 613 765 725 835 l 575 821 q 729 923 638 876 q 906 969 821 969 m 379 969 q 568 696 568 969 q 507 317 568 511 q 431 133 475 215 q 322 -2 388 50 q 178 -54 256 -54 q 56 -5 101 -54 q 10 122 10 44 q 101 328 10 233 q 332 486 192 422 q 351 687 351 593 q 333 815 351 781 q 281 850 315 850 q 200 832 247 850 q 110 783 153 814 l 72 839 q 216 930 131 890 q 379 969 301 969 m 553 -60 q 564 -106 553 -89 q 606 -129 579 -129 q 698 -42 650 -128 q 779 204 746 44 q 619 94 686 169 q 553 -60 553 18 m 318 378 q 174 277 233 342 q 114 147 114 213 q 165 81 114 81 q 251 153 210 82 q 318 378 292 225 z "},"":{"ha":733,"x_min":50,"x_max":756,"o":"m 329 529 q 329 500 329 529 q 292 328 329 471 q 254 142 254 186 q 267 99 254 99 q 331 125 275 99 l 347 133 l 371 85 q 338 57 358 74 q 260 12 317 40 q 154 -17 203 -17 q 78 13 106 -17 q 50 94 50 43 q 85 274 50 144 q 119 443 119 404 q 83 553 119 501 l 71 569 l 72 588 q 311 608 146 608 q 329 529 329 588 m 171 760 q 157 774 171 760 q 143 833 143 788 q 181 914 143 879 q 269 949 219 949 q 347 921 319 949 q 375 848 375 893 q 335 768 375 803 q 247 733 296 733 q 171 760 199 733 m 501 463 q 461 550 501 494 l 449 569 l 450 588 q 689 608 529 608 q 707 531 707 588 q 673 269 707 475 q 616 -26 639 64 q 568 -169 593 -117 q 490 -266 543 -221 q 376 -311 436 -311 q 264 -285 315 -311 q 186 -233 213 -258 l 161 -207 l 192 -162 q 293 -203 260 -203 q 388 -129 346 -203 q 465 163 429 -56 q 501 463 501 382 m 551 760 q 538 774 551 760 q 524 833 524 788 q 562 914 524 879 q 650 949 600 949 q 728 921 700 949 q 756 848 756 893 q 716 768 756 803 q 628 733 676 733 q 551 760 579 733 z "},"":{"ha":554,"x_min":-110,"x_max":672,"o":"m 340 969 q 382 969 340 969 q 458 900 425 969 q 492 683 492 831 q 454 350 492 536 q 594 361 539 361 q 668 361 650 361 q 671 328 671 350 q 658 265 671 306 q 547 269 608 271 q 435 261 485 268 q 297 -94 383 47 q 190 -214 251 -171 q 54 -257 128 -257 q -65 -206 -19 -257 q -110 -74 -110 -154 q -12 152 -110 47 q 228 310 86 257 q 272 682 272 497 q 259 803 272 771 q 221 835 246 835 q 46 765 158 835 l 8 821 q 163 923 71 876 q 340 969 254 969 m 88 1081 q 268 1208 154 1140 q 416 1276 382 1276 q 503 1208 450 1276 q 594 1079 557 1140 l 547 1035 q 375 1117 418 1106 q 125 1029 324 1107 l 88 1081 m -14 -60 q -3 -106 -14 -89 q 39 -129 13 -129 q 131 -42 83 -128 q 213 204 179 44 q 53 94 119 169 q -14 -60 -14 18 z "},"":{"ha":356,"x_min":-217,"x_max":475,"o":"m 319 978 q 475 746 358 978 l 428 703 q 406 722 422 707 q 383 743 389 738 q 363 761 376 749 q 340 779 349 774 q 319 793 332 785 q 278 818 293 813 q 57 697 190 790 l 18 753 q 183 900 81 822 q 319 978 286 978 m 124 463 q 83 550 124 494 l 71 569 l 72 588 q 311 608 151 608 q 329 531 329 588 q 295 269 329 475 q 238 -26 261 64 q 190 -169 215 -117 q 112 -266 165 -221 q -2 -311 58 -311 q -114 -285 -62 -311 q -192 -233 -165 -258 l -217 -207 l -186 -162 q -85 -203 -118 -203 q 10 -129 -32 -203 q 88 163 51 -56 q 124 463 124 382 z "},"":{"ha":706,"x_min":39,"x_max":713,"o":"m 431 -125 q 308 -364 431 -242 l 261 -339 q 297 -217 289 -282 l 215 -146 q 253 -75 221 -117 q 319 -19 286 -33 q 397 -54 364 -19 q 431 -125 431 -89 m 199 917 q 190 982 199 963 q 394 1019 299 1019 q 407 956 407 1007 q 331 514 407 840 q 575 615 454 615 q 667 582 629 615 q 704 485 704 549 q 508 311 704 365 q 589 115 554 167 q 611 93 604 93 q 675 117 626 93 l 690 124 l 713 76 q 620 15 679 46 q 513 -17 561 -17 q 361 181 404 -17 q 338 339 342 265 q 470 390 426 360 q 514 466 514 419 q 467 513 514 513 q 308 418 419 513 q 239 17 239 125 q 40 -6 163 -6 q 39 36 39 18 q 119 444 39 96 q 199 917 199 793 z "},"":{"ha":722,"x_min":53,"x_max":729,"o":"m 79 -4 l 53 -4 q 92 246 53 61 q 132 456 132 431 q 93 553 132 501 l 81 569 l 82 588 q 322 608 157 608 q 342 519 342 585 q 341 515 342 518 q 340 508 340 511 q 592 615 467 615 q 683 582 646 615 q 721 485 721 549 q 525 311 721 365 q 606 115 571 167 q 628 93 621 93 q 692 117 643 93 l 707 124 l 729 76 q 637 15 696 46 q 529 -17 578 -17 q 378 181 421 -17 q 354 339 358 265 q 487 390 443 360 q 531 466 531 419 q 488 513 531 513 q 325 419 438 513 q 254 15 254 113 q 79 -4 206 -4 z "},"":{"ha":656,"x_min":-36,"x_max":808,"o":"m 808 -78 q 742 -159 788 -122 q 646 -196 697 -196 q 545 -167 594 -196 q 465 -110 496 -139 q 378 -19 435 -81 q 301 63 322 42 q 122 -17 228 -17 q 8 18 53 -17 q -36 110 -36 53 q 12 209 -36 168 q 140 250 60 250 q 232 235 186 250 q 254 428 246 303 q 116 499 169 443 q 63 656 63 556 q 75 754 63 694 q 115 757 90 757 q 167 738 140 757 q 149 649 149 704 q 258 510 149 536 q 275 723 264 661 q 314 841 286 785 q 406 942 342 897 q 571 986 471 986 q 726 927 671 986 q 781 788 781 868 q 677 560 781 675 q 421 421 574 446 q 358 167 378 233 q 440 104 381 150 q 530 37 499 58 q 615 -6 561 15 q 718 -28 668 -28 l 776 -24 q 808 -78 800 -57 m 688 775 q 666 843 688 817 q 608 869 644 869 q 472 667 515 869 q 439 506 449 556 q 615 608 542 524 q 688 775 688 692 m 568 169 q 547 169 568 169 q 501 197 525 169 q 476 267 476 224 q 510 344 476 311 q 589 376 544 376 q 657 350 633 376 q 681 281 681 324 q 646 204 681 239 q 568 169 611 169 m 110 88 q 196 140 158 88 q 115 165 156 165 q 56 126 56 165 q 72 97 56 107 q 110 88 89 88 z "},"":{"ha":554,"x_min":39,"x_max":585,"o":"m 472 408 q 451 408 472 408 q 405 435 429 408 q 381 506 381 463 q 415 583 381 550 q 493 615 449 615 q 561 589 538 615 q 585 520 585 563 q 550 443 585 478 q 472 408 515 408 m 149 -17 q 125 -17 149 -17 q 70 15 101 -17 q 39 105 39 47 q 108 473 39 163 q 176 921 176 783 l 168 982 q 371 1019 276 1019 q 385 951 385 1000 q 315 522 385 840 q 244 151 244 203 q 257 99 244 99 l 354 133 l 379 85 q 265 15 332 47 q 149 -17 197 -17 z "},"":{"ha":656,"x_min":-36,"x_max":808,"o":"m 63 656 q 75 754 63 694 q 115 757 90 757 q 167 738 140 757 q 149 649 149 704 q 258 510 149 536 q 275 723 264 661 q 314 841 286 785 q 406 942 342 897 q 571 986 471 986 q 726 927 671 986 q 781 788 781 868 q 677 560 781 675 q 421 421 574 446 l 413 383 q 606 368 533 383 q 607 344 610 357 q 583 275 607 314 q 462 298 521 296 q 393 301 403 300 q 358 167 379 236 q 440 104 381 150 q 530 37 499 58 q 615 -6 561 15 q 718 -28 668 -28 l 776 -24 q 808 -78 800 -57 q 742 -159 788 -122 q 646 -196 697 -196 q 545 -167 594 -196 q 465 -110 496 -139 q 378 -19 435 -81 q 301 63 322 42 q 122 -17 228 -17 q 8 18 53 -17 q -36 110 -36 53 q 12 209 -36 168 q 140 250 60 250 q 232 235 186 250 q 243 304 240 279 q 89 290 169 301 l 89 363 q 251 381 163 374 q 254 428 254 411 q 116 499 169 443 q 63 656 63 556 m 688 775 q 666 843 688 817 q 608 869 644 869 q 472 667 515 869 q 439 506 449 556 q 615 608 542 524 q 688 775 688 692 m 110 88 q 196 140 158 88 q 115 165 156 165 q 56 126 56 165 q 72 97 56 107 q 110 88 89 88 z "},"":{"ha":481,"x_min":3,"x_max":538,"o":"m 399 644 q 501 700 443 667 q 538 624 529 668 q 461 585 515 611 q 378 543 407 558 l 369 506 q 303 149 303 200 q 315 99 303 99 l 413 133 l 438 85 q 323 15 390 47 q 208 -17 256 -17 q 128 15 160 -17 q 97 104 97 47 q 160 443 97 161 l 42 374 q 3 451 19 397 q 182 550 121 514 q 235 921 235 800 l 226 982 q 429 1019 335 1019 q 443 927 443 1000 q 399 644 443 854 z "},"":{"ha":1058,"x_min":24,"x_max":1033,"o":"m 571 717 l 572 690 q 546 456 572 582 q 472 214 519 329 q 349 22 425 99 q 194 -54 274 -54 q 69 -7 114 -54 q 24 124 24 40 q 131 410 24 256 q 356 667 238 565 q 325 829 356 800 q 281 843 310 843 q 198 818 253 843 q 93 750 143 793 l 58 799 q 205 915 108 860 q 389 969 301 969 q 561 808 528 969 q 888 986 764 986 q 991 938 949 986 q 1033 806 1033 889 q 965 474 1033 724 q 897 158 897 224 q 939 92 897 92 q 974 99 953 92 l 994 46 q 825 -17 904 -17 q 713 21 746 -17 q 681 119 681 58 q 746 434 681 181 q 811 749 811 688 q 756 825 811 825 q 571 717 689 825 m 972 1175 q 921 1114 972 1136 q 557 1042 794 1078 l 528 1106 q 921 1293 819 1238 q 954 1230 936 1271 q 972 1175 972 1189 m 167 78 q 277 211 222 78 q 351 553 332 344 q 198 354 275 482 q 121 144 121 226 q 134 94 121 111 q 167 78 147 78 z "},"":{"ha":706,"x_min":53,"x_max":703,"o":"m 79 -4 l 53 -4 q 92 246 53 61 q 132 456 132 431 q 93 553 132 501 l 81 569 l 82 588 q 322 608 157 608 q 342 522 340 585 q 546 615 463 615 q 626 581 596 615 q 656 494 656 546 q 624 314 656 442 q 592 142 592 186 q 603 99 592 99 q 661 125 611 99 l 678 133 l 703 85 q 669 57 690 74 q 592 12 649 40 q 492 -17 536 -17 q 390 99 390 -17 q 422 278 390 147 q 453 446 453 408 q 429 483 453 483 q 331 449 389 483 q 303 324 326 425 q 254 15 254 106 q 79 -4 206 -4 m 614 856 q 564 793 614 817 q 224 699 496 761 l 199 754 q 435 893 329 822 q 565 979 540 964 q 597 918 579 960 q 614 856 614 876 z "},"":{"ha":1165,"x_min":44,"x_max":1383,"o":"m 1203 960 q 1096 936 1147 960 q 1154 818 1154 889 q 1117 693 1154 747 q 1023 639 1079 639 q 933 674 967 639 q 899 772 899 710 q 940 894 899 835 q 829 840 875 890 q 783 706 783 789 q 817 558 783 622 q 913 568 864 568 q 1069 474 1069 568 q 1038 402 1069 433 q 934 371 1007 371 q 775 422 861 371 q 694 253 694 346 q 733 151 694 192 q 839 111 772 111 q 978 156 906 111 q 1106 263 1050 200 l 1156 218 q 1056 106 1119 165 q 769 -17 926 -17 q 563 47 644 -17 q 379 -17 479 -17 q 135 90 226 -17 q 44 367 44 196 q 79 579 44 471 q 176 779 114 688 q 333 929 238 871 q 538 988 429 988 q 722 929 647 988 q 925 986 811 986 q 1021 974 978 986 q 1225 1038 1114 1038 q 1320 1024 1276 1038 q 1383 990 1364 1010 q 1353 914 1381 944 l 1343 904 q 1203 960 1294 960 m 669 514 q 600 697 600 601 q 642 853 600 792 q 539 893 601 893 q 419 830 476 893 q 328 672 361 767 q 261 294 261 475 q 388 76 261 76 q 496 128 451 76 q 472 238 472 175 q 669 514 472 421 m 1072 794 q 1019 882 1072 854 q 978 776 978 838 q 1021 715 978 715 q 1058 738 1043 715 q 1072 794 1072 761 m 994 469 q 978 492 994 483 q 933 501 963 501 q 865 485 903 501 q 949 444 904 444 q 994 469 994 444 z "},"":{"ha":989,"x_min":32,"x_max":1001,"o":"m 338 615 q 421 593 382 615 q 460 599 439 599 q 546 457 546 599 q 663 574 590 533 q 815 615 735 615 q 949 581 896 615 q 1001 490 1001 547 q 967 393 1001 432 q 885 333 933 354 q 706 282 789 292 l 671 278 q 778 88 681 88 q 849 104 811 88 q 907 138 886 121 l 928 154 l 961 110 q 917 69 950 94 q 853 28 883 44 q 688 -17 774 -17 q 500 153 533 -17 q 236 -17 408 -17 q 86 51 140 -17 q 32 239 32 118 q 113 504 32 393 q 338 615 194 615 m 311 103 q 416 159 369 103 q 481 278 463 215 q 332 419 332 278 q 350 528 332 478 l 357 544 q 343 547 351 547 q 331 544 335 547 q 265 440 296 522 q 235 253 235 358 q 311 103 235 103 m 779 543 q 703 486 731 543 q 669 367 675 429 l 672 349 q 783 394 743 360 q 824 486 824 429 q 779 543 824 543 z "},"":{"ha":881,"x_min":-62,"x_max":964,"o":"m 529 392 q 493 390 519 390 q 454 400 467 390 q 444 447 444 410 q 451 505 444 485 q 495 525 458 525 q 565 507 532 525 q 640 601 606 538 q 675 733 675 665 q 616 878 675 832 q 433 924 557 924 q 142 854 256 924 q 29 707 29 785 q 60 645 29 669 q 121 613 90 621 q 86 510 115 557 q -15 566 32 518 q -62 696 -62 614 q 94 919 -62 832 q 483 1007 251 1007 q 778 938 669 1007 q 886 733 886 868 q 815 563 886 639 q 644 439 744 488 q 687 372 668 415 q 717 302 706 329 q 736 258 729 275 q 756 211 743 242 q 853 -6 810 64 q 938 -76 897 -76 q 950 -75 946 -76 l 964 -125 q 808 -179 896 -179 q 685 -134 721 -179 q 618 51 649 -89 q 594 153 614 65 q 529 392 556 339 m 261 725 q 228 794 261 757 l 229 804 q 413 847 303 847 q 476 840 456 847 q 483 797 483 825 q 412 447 483 736 q 328 15 340 158 q 146 -8 246 -8 q 111 -4 122 -8 q 190 359 118 85 q 261 725 261 633 m 833 1175 q 782 1114 833 1136 q 418 1042 656 1078 l 389 1106 q 782 1293 681 1238 q 815 1230 797 1271 q 833 1175 833 1189 z "},"":{"ha":881,"x_min":-62,"x_max":964,"o":"m 529 392 q 493 390 519 390 q 454 400 467 390 q 444 447 444 410 q 451 505 444 485 q 495 525 458 525 q 565 507 532 525 q 640 601 606 538 q 675 733 675 665 q 616 878 675 832 q 433 924 557 924 q 142 854 256 924 q 29 707 29 785 q 60 645 29 669 q 121 613 90 621 q 86 510 115 557 q -15 566 32 518 q -62 696 -62 614 q 94 919 -62 832 q 483 1007 251 1007 q 778 938 669 1007 q 886 733 886 868 q 815 563 886 639 q 644 439 744 488 q 687 372 668 415 q 717 302 706 329 q 736 258 729 275 q 756 211 743 242 q 853 -6 810 64 q 938 -76 897 -76 q 950 -75 946 -76 l 964 -125 q 808 -179 896 -179 q 685 -134 721 -179 q 618 51 649 -89 q 594 153 614 65 q 529 392 556 339 m 261 725 q 228 794 261 757 l 229 804 q 413 847 303 847 q 476 840 456 847 q 483 797 483 825 q 412 447 483 736 q 328 15 340 158 q 146 -8 246 -8 q 111 -4 122 -8 q 190 359 118 85 q 261 725 261 633 m 546 -125 q 424 -364 546 -242 l 376 -339 q 413 -217 404 -282 l 331 -146 q 369 -75 336 -117 q 435 -19 401 -33 q 513 -54 479 -19 q 546 -125 546 -89 z "},"":{"ha":506,"x_min":33,"x_max":578,"o":"m 251 -133 q 216 -252 251 -186 q 126 -372 181 -318 l 79 -347 q 115 -225 107 -290 l 33 -165 q 68 -97 39 -136 q 131 -44 97 -58 q 215 -72 178 -44 q 251 -133 251 -100 m 69 -4 l 60 -4 q 57 47 57 7 q 94 260 57 86 q 132 458 132 433 q 93 553 132 501 l 81 569 l 82 588 q 322 608 157 608 q 339 507 339 572 q 403 574 354 532 q 503 615 451 615 q 578 485 578 615 q 559 463 571 476 q 512 426 547 450 q 443 397 476 403 q 419 435 442 397 q 386 472 397 472 q 325 431 351 460 q 261 58 261 143 q 263 15 261 28 q 69 -4 214 -4 z "},"":{"ha":881,"x_min":-62,"x_max":964,"o":"m 529 392 q 493 390 519 390 q 454 400 467 390 q 444 447 444 410 q 451 505 444 485 q 495 525 458 525 q 565 507 532 525 q 640 601 606 538 q 675 733 675 665 q 616 878 675 832 q 433 924 557 924 q 142 854 256 924 q 29 707 29 785 q 60 645 29 669 q 121 613 90 621 q 86 510 115 557 q -15 566 32 518 q -62 696 -62 614 q 94 919 -62 832 q 483 1007 251 1007 q 778 938 669 1007 q 886 733 886 868 q 815 563 886 639 q 644 439 744 488 q 687 372 668 415 q 717 302 706 329 q 736 258 729 275 q 756 211 743 242 q 853 -6 810 64 q 938 -76 897 -76 q 950 -75 946 -76 l 964 -125 q 808 -179 896 -179 q 685 -134 721 -179 q 618 51 649 -89 q 594 153 614 65 q 529 392 556 339 m 261 725 q 228 794 261 757 l 229 804 q 413 847 303 847 q 476 840 456 847 q 483 797 483 825 q 412 447 483 736 q 328 15 340 158 q 146 -8 246 -8 q 111 -4 122 -8 q 190 359 118 85 q 261 725 261 633 m 821 1233 q 625 1104 750 1174 q 463 1035 500 1035 q 365 1106 426 1035 q 267 1235 304 1178 l 314 1279 q 507 1194 463 1204 q 674 1244 578 1207 q 783 1285 771 1281 l 821 1233 z "},"":{"ha":506,"x_min":57,"x_max":578,"o":"m 275 700 q 119 932 236 700 l 167 975 q 189 956 172 971 q 212 935 206 940 q 232 917 218 929 q 254 899 246 904 q 275 885 263 893 q 317 860 301 865 q 538 981 404 888 l 576 925 q 411 778 514 856 q 275 700 308 700 m 69 -4 l 60 -4 q 57 47 57 7 q 94 260 57 86 q 132 458 132 433 q 93 553 132 501 l 81 569 l 82 588 q 322 608 157 608 q 339 507 339 572 q 403 574 354 532 q 503 615 451 615 q 578 485 578 615 q 559 463 571 476 q 512 426 547 450 q 443 397 476 403 q 419 435 442 397 q 386 472 397 472 q 325 431 351 460 q 261 58 261 143 q 263 15 261 28 q 69 -4 214 -4 z "},"":{"ha":356,"x_min":-217,"x_max":329,"o":"m 124 463 q 83 550 124 494 l 71 569 l 72 588 q 311 608 151 608 q 329 531 329 588 q 295 269 329 475 q 238 -26 261 64 q 190 -169 215 -117 q 112 -266 165 -221 q -2 -311 58 -311 q -114 -285 -62 -311 q -192 -233 -165 -258 l -217 -207 l -186 -162 q -85 -203 -118 -203 q 10 -129 -32 -203 q 88 163 51 -56 q 124 463 124 382 z "},"":{"ha":781,"x_min":128,"x_max":650,"o":"m 474 979 q 650 744 519 979 l 607 704 q 428 819 488 797 q 165 699 315 789 l 128 750 q 319 900 201 821 q 474 979 436 979 z "},"":{"ha":781,"x_min":121,"x_max":647,"o":"m 301 701 q 121 932 250 701 l 168 976 q 347 861 286 883 q 610 982 460 892 l 647 931 q 456 781 574 860 q 301 701 339 701 z "},"":{"ha":674,"x_min":183,"x_max":489,"o":"m 223 765 q 203 786 223 765 q 183 871 183 807 q 223 976 183 935 q 336 1017 263 1017 q 449 976 410 1017 q 489 871 489 935 q 449 765 489 807 q 336 724 410 724 q 223 765 263 724 m 283 920 q 273 911 283 920 q 264 871 264 901 q 283 822 264 840 q 335 803 301 803 q 387 822 369 803 q 404 871 404 840 q 387 920 404 901 q 335 939 369 939 q 283 920 301 939 z "},"":{"ha":831,"x_min":143,"x_max":681,"o":"m 143 738 q 283 935 163 935 q 422 910 331 935 q 550 886 513 886 q 603 894 588 886 q 638 936 618 903 l 681 928 q 658 821 675 864 q 539 739 626 739 q 420 763 507 739 q 291 788 333 788 q 228 776 249 788 q 188 728 208 764 l 143 738 z "},"":{"ha":694,"x_min":199,"x_max":403,"o":"m 290 756 q 269 756 290 756 q 223 783 247 756 q 199 853 199 810 q 233 930 199 897 q 311 963 267 963 q 379 936 356 963 q 403 867 403 910 q 368 790 403 825 q 290 756 333 756 z "},"":{"ha":735,"x_min":75,"x_max":675,"o":"m 75 331 q 79 449 75 407 l 675 449 q 671 331 675 389 l 75 331 z "},"":{"ha":1344,"x_min":89,"x_max":1285,"o":"m 89 331 q 93 451 89 376 l 1285 451 q 1281 331 1285 389 l 89 331 z "},"":{"ha":338,"x_min":118,"x_max":338,"o":"m 118 719 q 271 1021 118 847 l 336 981 q 256 811 264 869 l 338 761 q 315 665 338 713 q 268 592 292 618 q 144 633 190 592 q 118 719 118 657 z "},"":{"ha":346,"x_min":103,"x_max":322,"o":"m 322 893 q 169 592 322 765 l 104 632 q 185 801 176 743 l 103 851 q 126 947 103 900 q 172 1021 149 994 q 296 979 250 1021 q 322 893 322 956 z "},"":{"ha":390,"x_min":93,"x_max":313,"o":"m 313 72 q 160 -229 313 -56 l 108 -196 q 192 -29 185 -78 l 93 31 q 116 126 93 79 q 163 200 139 174 q 286 158 240 200 q 313 72 313 135 z "},"":{"ha":608,"x_min":118,"x_max":608,"o":"m 118 719 q 271 1021 118 847 l 336 981 q 256 811 264 869 l 338 761 q 315 665 338 713 q 268 592 292 618 q 144 633 190 592 q 118 719 118 657 m 389 719 q 542 1021 389 847 l 607 981 q 526 811 535 869 l 608 761 q 585 665 608 713 q 539 592 563 618 q 415 633 461 592 q 389 719 389 657 z "},"":{"ha":614,"x_min":124,"x_max":614,"o":"m 614 893 q 461 592 614 765 l 396 632 q 476 801 468 743 l 394 851 q 417 947 394 900 q 464 1021 440 994 q 588 979 542 1021 q 614 893 614 956 m 343 893 q 190 592 343 765 l 125 632 q 206 801 197 743 l 124 851 q 147 947 124 900 q 193 1021 169 994 q 317 979 271 1021 q 343 893 343 956 z "},"":{"ha":650,"x_min":93,"x_max":583,"o":"m 313 72 q 160 -229 313 -56 l 108 -196 q 192 -29 185 -78 l 93 31 q 116 126 93 79 q 163 200 139 174 q 286 158 240 200 q 313 72 313 135 m 583 72 q 431 -229 583 -56 l 379 -196 q 463 -29 456 -78 l 364 31 q 387 126 364 79 q 433 200 410 174 q 498 189 461 200 q 559 156 535 178 q 583 72 583 135 z "},"":{"ha":594,"x_min":139,"x_max":489,"o":"m 306 275 q 268 275 306 275 q 185 323 231 275 q 139 447 139 371 q 192 574 139 522 q 322 625 244 625 q 444 578 399 625 q 489 458 489 532 q 435 330 489 385 q 306 275 382 275 z "},"":{"ha":449,"x_min":100,"x_max":419,"o":"m 360 683 l 419 636 q 264 418 293 478 q 375 203 288 346 l 317 154 q 184 279 268 188 q 100 411 100 371 q 360 683 104 461 z "},"":{"ha":464,"x_min":72,"x_max":392,"o":"m 132 154 l 72 201 q 228 419 199 360 q 117 635 204 492 l 175 683 q 308 558 224 650 q 392 426 392 467 q 132 154 388 376 z "},"":{"ha":814,"x_min":17,"x_max":865,"o":"m 647 438 q 624 357 644 403 q 501 363 571 363 q 351 360 432 363 q 404 180 357 235 q 519 125 451 125 q 731 228 629 125 l 788 176 q 732 115 772 154 q 653 51 692 76 q 554 4 614 25 q 433 -17 494 -17 q 224 83 308 -17 q 135 357 139 182 q 19 346 61 353 q 17 387 17 363 q 21 438 17 411 l 138 438 q 147 518 139 465 q 44 507 81 514 q 42 547 42 524 q 46 599 42 571 l 168 599 q 335 877 219 768 q 600 986 450 986 q 790 931 714 986 q 865 798 865 875 q 819 667 865 721 q 719 686 775 667 q 636 733 664 706 l 663 874 q 569 894 629 894 q 454 813 510 894 q 371 599 399 732 l 672 599 q 649 518 669 564 q 523 524 596 524 q 358 521 450 524 q 351 438 353 465 l 647 438 z "}}}
